<svg width="404" height="287" fill="none" xmlns="http://www.w3.org/2000/svg"><path d="M243.036 286.885a33.79 33.79 0 01-9.672-1.3c-8.294-2.496-15.717-9.451-20.345-19.058-4.147-8.606-5.811-18.083-7.41-27.3a.614.614 0 01.285-.646.617.617 0 01.235-.082.613.613 0 01.47.102.63.63 0 01.258.405c1.586 9.1 3.224 18.486 7.293 26.936 4.485 9.295 11.622 15.99 19.578 18.395 5.785 1.729 12.09 1.3 18.044.598 12.753-1.508 20.527-5.46 23.79-12.064.117-.26.234-.494.312-.715-2.041.572-4.056 1.3-6.032 2.041-1.638.598-3.328 1.209-5.018 1.742a53.9 53.9 0 01-25.441 1.664c-4.095-.728-6.591-2.704-6.682-5.278-.091-2.574 2.132-4.628 6.097-5.772a63.769 63.769 0 0133.345-.611c3.12.78 4.836 2.08 5.2 3.965.039.206.065.415.078.624.494-.117.988-.221 1.495-.312 5.278-.936 10.79-.403 16.12.104 7.566.728 14.716 1.417 21.164-1.755a.635.635 0 01.845.299.618.618 0 01.035.483.634.634 0 01-.321.362c-6.773 3.315-14.43 2.6-21.84 1.872-5.2-.507-10.673-1.027-15.782-.117-.624.104-1.3.247-1.859.39a8.403 8.403 0 01-.637 1.664c-3.458 7.02-11.57 11.193-24.765 12.766a74.656 74.656 0 01-8.84.598zm13.559-21.632a62.682 62.682 0 00-17.446 2.483c-1.586.455-5.278 1.833-5.2 4.524.078 2.691 4.329 3.9 5.629 4.069a52.742 52.742 0 0024.843-1.534c1.664-.52 3.341-1.131 4.953-1.716 2.223-.819 4.485-1.651 6.812-2.262.027-.22.027-.443 0-.663-.299-1.378-1.716-2.353-4.329-3.016a62.422 62.422 0 00-15.262-1.885z" fill="#E6E7E8"/><path d="M396.137 87.933H311.52a6.188 6.188 0 00-6.188 6.188v180.96a6.188 6.188 0 006.188 6.188h84.617a6.188 6.188 0 006.188-6.188V94.121a6.188 6.188 0 00-6.188-6.188z" fill="#fff"/><path d="M396.137 281.893H311.52a6.826 6.826 0 01-6.812-6.812V94.108a6.822 6.822 0 016.812-6.812h84.617a6.823 6.823 0 016.825 6.812V275.08a6.82 6.82 0 01-2.004 4.817 6.82 6.82 0 01-4.821 1.995zM311.52 88.557a5.551 5.551 0 00-5.551 5.55v180.974a5.551 5.551 0 005.551 5.551h84.617a5.551 5.551 0 005.551-5.551V94.108a5.551 5.551 0 00-5.551-5.551H311.52z" fill="#231F20"/><path d="M397.229 105.418h-86.801v148.785h86.801V105.418z" fill="#845ADF"/><path d="M362.09 261.444h-16.523a3.796 3.796 0 00-3.796 3.796v6.331c0 2.096 1.7 3.796 3.796 3.796h16.523c2.096 0 3.796-1.7 3.796-3.796v-6.331c0-2.097-1.7-3.796-3.796-3.796z" fill="#fff"/><path d="M362.077 275.991H345.58a4.436 4.436 0 01-4.433-4.433v-6.305a4.436 4.436 0 014.433-4.433h16.497a4.426 4.426 0 013.143 1.294 4.43 4.43 0 011.303 3.139v6.305a4.445 4.445 0 01-4.446 4.433zm-16.497-13.91a3.172 3.172 0 00-3.172 3.172v6.305a3.172 3.172 0 003.172 3.172h16.497a3.172 3.172 0 003.172-3.172v-6.305a3.172 3.172 0 00-3.172-3.172H345.58zM362.597 96.903h-24.7a.623.623 0 01-.637-.624.635.635 0 01.637-.637h24.7a.626.626 0 01.624.637.603.603 0 01-.179.445.611.611 0 01-.445.179zM369.37 96.903h-3.315a.624.624 0 01-.624-.624.636.636 0 01.624-.637h3.315a.635.635 0 01.45 1.083.633.633 0 01-.45.178z" fill="#E6E7E8"/><path d="M386.205 198.901H321.4a4.862 4.862 0 01-4.862-4.862v-32.006a4.858 4.858 0 011.42-3.446 4.856 4.856 0 013.442-1.429h64.753a4.875 4.875 0 014.875 4.875v32.006a4.877 4.877 0 01-4.823 4.862zM321.4 158.432c-.955 0-1.871.379-2.546 1.055a3.597 3.597 0 00-1.055 2.546v32.006c0 .955.379 1.871 1.055 2.546a3.597 3.597 0 002.546 1.055h64.753c.955 0 1.871-.379 2.546-1.055a3.597 3.597 0 001.055-2.546v-32.006c0-.955-.379-1.871-1.055-2.546a3.597 3.597 0 00-2.546-1.055H321.4z" fill="#fff"/><path d="M317.214 195.222a.643.643 0 01-.59-.429.634.634 0 01.2-.702l32.084-25.389a.635.635 0 01.845.065l19.149 19.864a.637.637 0 01-.203 1.033.628.628 0 01-.681-.136l-18.746-19.5-31.642 25.038a.613.613 0 01-.416.156z" fill="#fff"/><path d="M390.443 188.852a.625.625 0 01-.468-.221l-10.634-12.051-12.155 10.153a.625.625 0 01-.884-.078.625.625 0 01.078-.884l12.623-10.556a.623.623 0 01.871 0l11.037 12.519a.635.635 0 01.184.442.633.633 0 01-.184.442.578.578 0 01-.468.234zM368.447 174.123a4.925 4.925 0 01-4.846-5.885 4.929 4.929 0 016.725-3.592 4.934 4.934 0 013.035 4.563 4.925 4.925 0 01-4.914 4.914zm0-8.58a3.661 3.661 0 00-3.396 2.254 3.661 3.661 0 00.786 4 3.671 3.671 0 003.997.8 3.661 3.661 0 002.266-3.388 3.665 3.665 0 00-3.653-3.666zM326.444 229.984h-3.497a4.446 4.446 0 00-4.446 4.446v5.46a4.447 4.447 0 004.446 4.446h3.497a4.447 4.447 0 004.446-4.446v-5.46a4.446 4.446 0 00-4.446-4.446zM345.866 229.984h-3.497a4.446 4.446 0 00-4.446 4.446v5.46a4.447 4.447 0 004.446 4.446h3.497a4.447 4.447 0 004.446-4.446v-5.46a4.446 4.446 0 00-4.446-4.446zM365.288 229.984h-3.497a4.446 4.446 0 00-4.446 4.446v5.46a4.447 4.447 0 004.446 4.446h3.497a4.447 4.447 0 004.446-4.446v-5.46a4.446 4.446 0 00-4.446-4.446zM384.71 229.984h-3.497a4.446 4.446 0 00-4.446 4.446v5.46a4.447 4.447 0 004.446 4.446h3.497a4.447 4.447 0 004.446-4.446v-5.46a4.446 4.446 0 00-4.446-4.446zM389.52 117.82h-71.383a.625.625 0 01-.45-1.074.633.633 0 01.45-.187h71.383c.169 0 .331.067.45.187a.633.633 0 010 .896.625.625 0 01-.45.178zM389.52 127.882h-71.383a.655.655 0 01-.46-.19.655.655 0 010-.92.65.65 0 01.46-.19h71.383a.65.65 0 110 1.3zM389.52 137.944h-71.383a.633.633 0 01-.45-.187.633.633 0 010-.896.625.625 0 01.45-.178h71.383a.625.625 0 01.45 1.074.633.633 0 01-.45.187zM389.52 148.006h-71.383a.655.655 0 01-.46-.19.655.655 0 010-.92.65.65 0 01.46-.19h71.383a.65.65 0 110 1.3zM389.52 210.328h-71.383a.655.655 0 01-.46-.19.655.655 0 010-.92.65.65 0 01.46-.19h71.383a.65.65 0 110 1.3zM389.52 220.403h-71.383a.625.625 0 01-.45-1.075.636.636 0 01.45-.186h71.383a.636.636 0 01.588.879.63.63 0 01-.345.338.612.612 0 01-.243.044zM376.221 20.008s1.599-6.812.117-10.686a5.574 5.574 0 00-5.538-3.497s-10.764-2.392-13.871-5.2l1.404 4.966a14.3 14.3 0 01-5.382-1.47 4.907 4.907 0 001.391 4.785 5.747 5.747 0 01-4.966 0s2.951 7.24 9.815 6.5c4.472-.663 12.389 6.097 17.03 4.602z" fill="#fff"/><path d="M374.7 20.866c-2.457 0-5.33-1.3-8.138-2.6s-5.447-2.6-7.332-2.327c-7.267.845-10.4-6.747-10.478-6.825a.638.638 0 01.91-.78 4.693 4.693 0 003.51.338 5.693 5.693 0 01-.871-4.68.581.581 0 01.338-.403.687.687 0 01.533 0 16.516 16.516 0 004.264 1.3L356.279.807a.65.65 0 01.273-.715.624.624 0 01.754.078c2.808 2.6 12.467 4.797 13.507 5.044a6.123 6.123 0 016.11 3.9c1.547 4.004 0 10.764-.091 11.05a.602.602 0 01-.403.455 5.457 5.457 0 01-1.729.247zM359.672 14.6c2.132 0 4.706 1.209 7.423 2.47 3.107 1.456 6.318 2.95 8.593 2.43.299-1.43 1.3-6.798.065-9.944a4.954 4.954 0 00-4.953-3.107h-.195c-.39-.091-8.489-1.898-12.649-4.303l.923 3.263a.652.652 0 01-.104.559.638.638 0 01-.507.247 14.016 14.016 0 01-4.888-1.196 3.893 3.893 0 001.3 3.393.665.665 0 01.221.559.61.61 0 01-.351.494 6.863 6.863 0 01-3.9.52c1.196 1.95 3.9 5.2 8.437 4.667.194-.03.389-.048.585-.052z" fill="#231F20"/><path d="M385.308 77.013s9.386-20.527 8.242-33.982c-1.144-13.455-9.958-14.3-13-14.47-3.042-.168-19.253-2.352-25.168 4.889-5.915 7.24-4.381 42.12-4.381 42.12l34.307 1.443z" fill="#845ADF"/><path d="M350.312 68.667a122.03 122.03 0 00-19.695 11.336c-5.486 3.718-8.593 42.965-8.593 42.965s1.131 6.305 8.424 5.317l19.201-43.719s6.851-16.068.663-15.9z" fill="#231F20"/><path d="M328.953 128.987a7.53 7.53 0 01-7.553-5.954.678.678 0 010-.156c.325-4.056 3.302-39.65 8.866-43.433a123.855 123.855 0 0119.825-11.362.429.429 0 01.221 0 2.797 2.797 0 012.509 1.196c2.431 3.575-2.054 14.3-2.6 15.6L331.02 128.61a.63.63 0 01-.494.364c-.524.04-1.049.044-1.573.013zm-6.253-6.084c.143.676 1.391 5.395 7.358 4.771l19.058-43.381c1.3-3.12 4.42-11.804 2.691-14.3a1.496 1.496 0 00-1.3-.65 127.51 127.51 0 00-19.5 11.206c-4.316 2.847-7.475 31.434-8.307 42.354z" fill="#231F20"/><path d="M386.075 72.697s-27.573.793-34.06-.156c0 0-.364.078-5.122 8.84s2.08 48.815 2.08 48.815 6.266 6.63 11.219 5.681l5.863-45.67s9.997.3 15.6-3.678c3.848-2.795 3.679-8.762 4.42-13.832z" fill="#231F20"/><path d="M359.178 136.605c-4.966 0-10.4-5.72-10.673-5.98a.58.58 0 01-.156-.325c-.286-1.638-6.825-40.3-2.015-49.218 4.81-8.918 5.2-9.1 5.551-9.1h.221c6.357.949 33.683.169 33.956.156a.614.614 0 01.628.451c.024.09.027.185.009.277-.13.936-.247 1.91-.351 2.886-.481 4.394-.975 8.93-4.381 11.375-4.94 3.536-13.104 3.796-15.353 3.796l-5.798 44.98a.64.64 0 01-.507.546 6.44 6.44 0 01-1.131.156zm-9.62-6.708c.871.884 5.954 5.798 10.062 5.421l5.811-45.188a.61.61 0 01.65-.546c.104 0 9.841.234 15.158-3.562 2.938-2.12 3.406-6.37 3.9-10.491.078-.728.156-1.47.247-2.184-4.446.117-26.611.663-33.059-.143-.377.546-1.534 2.379-4.849 8.476-4.472 8.177 1.573 45.188 2.08 48.217z" fill="#231F20"/><path d="M355.369 33.45s-4.368 8.41-6.942 12.727a89.918 89.918 0 01-8.177 10.517s-19.825 7.046-19.942 7.423c-.117.377 1.872 7.046 1.872 7.046s20.8-1.495 24.232-3.12c3.432-1.625 10.4-9.62 10.4-9.62l-1.443-24.973z" fill="#845ADF"/><path d="M363.442 28.939l1.183 7.176a5.328 5.328 0 006.838 1.69C376 35.803 376 32.37 376 32.37l-2.418-13.26s-4.186-1.625-6.357-9.79c0 0-10.4.794-9.685 4.68 0 0-.13 7.32.975 10.882a6.428 6.428 0 004.927 4.056z" fill="#fff"/><path d="M368.915 39.027a6.138 6.138 0 01-4.823-2.6.891.891 0 01-.091-.234l-1.118-6.773a6.658 6.658 0 01-4.992-4.368c-1.131-3.627-1.014-10.79-1.014-11.09a2.601 2.601 0 01.572-2.014c2.041-2.6 8.918-3.224 9.698-3.276a.637.637 0 01.663.468c2.041 7.683 5.941 9.347 5.98 9.36a.62.62 0 01.39.468l2.418 13.26c0 .273 0 4.017-4.875 6.136-.88.414-1.836.64-2.808.663zm-3.692-3.16a4.705 4.705 0 005.993 1.366c4.03-1.768 4.134-4.745 4.134-4.875l-2.353-12.818c-1.066-.56-4.342-2.808-6.266-9.542-2.262.234-6.955 1.04-8.294 2.756a1.363 1.363 0 00-.299 1.13c0 .196-.104 7.385.962 10.817a5.596 5.596 0 004.381 3.6l.26.079a.663.663 0 01.325.455l1.157 7.033z" fill="#231F20"/><path d="M370.8 19.37a3.16 3.16 0 01.754-1.82c.43-.458.936-.84 1.495-1.13.292-.185.62-.305.962-.351a1.94 1.94 0 01.715.13c.532.166.991.51 1.3.975.203.403.305.849.299 1.3a5.25 5.25 0 01-.104 1.495 3.767 3.767 0 01-1.703 2.366 3.9 3.9 0 01-2.873.455" fill="#fff"/><path d="M372.529 23.57a4.655 4.655 0 01-1.04-.13.637.637 0 01-.363-.99.612.612 0 01.416-.247.624.624 0 01.246.015c.82.185 1.681.05 2.405-.377a3.223 3.223 0 001.417-1.976c.086-.428.117-.865.091-1.3a2.214 2.214 0 00-.221-1.04 1.808 1.808 0 00-1.001-.715 2.067 2.067 0 00-.468-.091 1.774 1.774 0 00-.689.286 4.75 4.75 0 00-1.3.975 2.43 2.43 0 00-.598 1.456.649.649 0 01-.676.598.62.62 0 01-.557-.43.64.64 0 01-.028-.246 3.8 3.8 0 01.897-2.197 5.924 5.924 0 011.664-1.3 3.057 3.057 0 011.3-.442c.328 0 .654.056.962.169a2.95 2.95 0 011.677 1.3c.26.502.394 1.06.39 1.625a6.497 6.497 0 01-.117 1.664 4.448 4.448 0 01-4.316 3.419l-.091-.026z" fill="#231F20"/><path d="M364.222 17.447s-1.95 4.056-1.3 4.615c.65.559 2.275-.104 2.275-.104" fill="#fff"/><path d="M363.754 22.907a1.845 1.845 0 01-1.196-.364c-.273-.221-1.066-.871 1.105-5.37a.638.638 0 01.832-.298.632.632 0 01.328.36.623.623 0 01-.029.485 13.374 13.374 0 00-1.3 3.9 2.821 2.821 0 001.534-.247.65.65 0 01.832.338c.032.078.048.16.047.245a.622.622 0 01-.19.45.626.626 0 01-.208.137 5.002 5.002 0 01-1.755.364zM367.43 17.278c.343-.034.582-.45.533-.93-.048-.478-.366-.837-.709-.803-.343.035-.581.451-.533.93.049.478.366.838.709.803zM362.166 18.206c.344-.032.585-.447.54-.926-.045-.479-.36-.84-.703-.808-.344.032-.585.447-.54.925.046.48.36.841.703.809z" fill="#231F20"/><path d="M364.794 26.092a9.786 9.786 0 01-3.471-.715.619.619 0 01-.38-.591.627.627 0 01.055-.241.652.652 0 01.832-.325s2.951 1.3 4.94.169a4.016 4.016 0 001.82-3.081.658.658 0 111.3.208 5.2 5.2 0 01-2.47 3.978 5.2 5.2 0 01-2.626.598zM363.442 28.939s4.628.286 7.02-1.651c0 0-1.924 6.5-6.201 6.5l-.819-4.85z" fill="#231F20"/><path d="M364.3 34.503a.614.614 0 01-.611-.533l-.819-4.914a.612.612 0 01.156-.533.629.629 0 01.507-.208s4.42.247 6.578-1.508a.637.637 0 011.001.676c-.078.273-2.093 6.942-6.799 7.02h-.013zm0-4.901l.598 3.588c2.21-.377 3.679-2.795 4.446-4.46a14.468 14.468 0 01-5.161.859l.117.013z" fill="#231F20"/><path d="M389.156 31.903c3.705.65 18.694 35.308 13.559 39.26-8.008 6.175-35.88 0-35.88 0l2.275-10.751s17.914.507 18.2-3.172c.286-3.68-10.4-20.71-9.022-23.257 1.378-2.548 10.868-2.08 10.868-2.08z" fill="#845ADF"/><path d="M371.034 63.896c-2.975.19-5.962.045-8.905-.43a27.172 27.172 0 00-6.656-.766c-2.954.14-5.859.805-8.58 1.963a.662.662 0 00-.299.195c-.26.364.364.728.819.74a12.18 12.18 0 003.497-.441 33.312 33.312 0 00-7.917 4.212c-.286.195-.585.507-.455.819.13.312.702.26 1.066.09L350 67.355a16.174 16.174 0 00-4.55 2.769c-.182.169-.403.39-.338.637s.728.35 1.131.156a38.197 38.197 0 005.564-3.406l-3.9 3.042c0 .312.299.585.624.598.326-.02.64-.128.91-.312l4.407-2.6-2.743 1.924c-.442.299-.936.793-.715 1.3.221.507 1.092.39 1.664.143a32.997 32.997 0 017.046-2.158 11.787 11.787 0 012.6-.533 24.12 24.12 0 014.017.884c2.002.442 3.991.897 5.98 1.3" fill="#fff"/><path d="M351.027 72.437c-.19.004-.38-.027-.559-.091a1.145 1.145 0 01-.663-.624 1.037 1.037 0 01-.091-.403 2.21 2.21 0 01-1.222.403 1.293 1.293 0 01-1.105-.741c-.273.156-.559.299-.845.442a1.716 1.716 0 01-1.43.104.946.946 0 01-.52-.663.985.985 0 010-.39l-.702.325c-.4.21-.866.257-1.3.13a.936.936 0 01-.546-.52c-.117-.247-.26-.884.637-1.521a34.15 34.15 0 014.524-2.756 1.537 1.537 0 01-1.131-.715.884.884 0 01.078-.91c.138-.177.322-.313.533-.39a25.408 25.408 0 018.788-2.002 23.546 23.546 0 015.967.624l.819.143c2.904.468 5.852.611 8.788.429a.585.585 0 01.585.559.599.599 0 01-.559.598 42.162 42.162 0 01-9.035-.442l-.832-.156a23.314 23.314 0 00-5.694-.611A24.868 24.868 0 00347.543 65a10.88 10.88 0 003.224-.416.574.574 0 11.364 1.092 33.232 33.232 0 00-7.631 4.004l4.771-2.184c.494-.247.988-.481 1.495-.676a.574.574 0 01.455 1.053l-1.443.663a15.786 15.786 0 00-2.73 1.807 36.089 36.089 0 005.421-3.341.566.566 0 01.427-.11.578.578 0 01.379.227.582.582 0 01.116.425.574.574 0 01-.22.38l-3.146 2.393h.078l4.407-2.6a.585.585 0 01.624.975l-2.756 1.924c-.442.312-.533.546-.52.572a1.3 1.3 0 00.91-.156 33.812 33.812 0 017.189-2.21l.832-.221a6.21 6.21 0 011.911-.3c.994.079 1.975.27 2.925.573.416.117.819.234 1.209.312l5.98 1.378a.576.576 0 01.429.689.57.57 0 01-.689.429c-1.989-.455-3.978-.923-5.98-1.3-.403-.091-.819-.208-1.3-.325a12.31 12.31 0 00-2.6-.533 4.992 4.992 0 00-1.586.286c-.299.078-.598.169-.91.22a33.07 33.07 0 00-6.942 2.172 3.16 3.16 0 01-1.209.234z" fill="#231F20"/><path d="M357.293 36.492c-.988 1-3.471 16.757-4.381 24.193l4.381-24.193z" fill="#fff"/><path d="M352.912 61.27h-.078a.57.57 0 01-.494-.637c.559-4.628 3.237-23.205 4.55-24.544a.585.585 0 01.832.806c-.845 1.157-3.237 15.678-4.238 23.88a.587.587 0 01-.572.495z" fill="#231F20"/><path d="M319.905 75.518l.442 2.95 40.794 5.955-.689-3.042-40.547-5.863z" fill="#fff"/><path d="M361.141 85.06h-.091l-40.794-5.967a.637.637 0 01-.533-.533l-.442-2.951a.61.61 0 01.422-.697.69.69 0 01.293-.031l40.547 5.876a.626.626 0 01.52.48l.637 3.056a.58.58 0 01-.143.559.625.625 0 01-.416.208zm-40.3-7.15l39.429 5.759-.39-1.73-39.286-5.68.247 1.65z" fill="#231F20"/><path d="M319.905 75.518s9.282-7.97 9.594-7.891c.312.078 42.029 5.07 42.029 5.07L360.4 81.38l-40.495-5.863z" fill="#fff"/><path d="M360.4 82.018l-40.586-5.915a.647.647 0 01-.521-.81.614.614 0 01.196-.295c9.542-8.19 9.75-8.125 10.153-8.034.624.104 27.729 3.354 41.964 5.057a.64.64 0 01.533.468.598.598 0 01-.221.663l-11.076 8.684a.621.621 0 01-.442.182zm-39-6.93l38.896 5.63 9.672-7.58c-12.558-1.507-37.518-4.497-40.3-4.861-.936.585-5.161 4.134-8.268 6.812z" fill="#231F20"/><path d="M361.141 84.423l10.647-8.905-.26-2.821-11.076 8.684.689 3.042z" fill="#fff"/><path d="M361.141 85.06a.52.52 0 01-.195 0 .597.597 0 01-.416-.455l-.689-3.042a.61.61 0 01.221-.637l11.076-8.723a.635.635 0 011.027.442l.247 2.82a.618.618 0 01-.221.547l-10.647 8.918a.661.661 0 01-.403.13zm0-3.432l.377 1.65 9.594-8.033-.117-1.3-9.854 7.683z" fill="#231F20"/><path d="M319.905 75.518l-7.839-26.273 43.004 7.332 5.382 24.804-40.547-5.863z" fill="#fff"/><path d="M360.4 82.018l-40.586-5.915a.626.626 0 01-.52-.455l-7.8-26.26a.644.644 0 01.135-.6.639.639 0 01.58-.206l42.991 7.37a.623.623 0 01.507.482l5.356 24.869a.597.597 0 01-.156.559.63.63 0 01-.507.156zm-40.066-7.072l39.26 5.68-5.057-23.503-41.6-7.085 7.397 24.908zM380.394 74.907h-.104l-8.697-1.495a.646.646 0 01-.533-.611l-.273-10.4a.612.612 0 01.572-.637l15.379-1.586L379.9 36.66a.635.635 0 011.222-.351l7.033 24.193a.612.612 0 01-.078.52.671.671 0 01-.455.286l-15.6 1.599.26 9.32 8.19 1.405a.653.653 0 01-.117 1.3l.039-.026z" fill="#231F20"/><path d="M323.337 115.961a27.918 27.918 0 00-2.249-1.872c-1.69-1.3-5.317-3.133-6.357-.143-.65 1.846.351 4.303 1.04 6.006a23.586 23.586 0 006.071 8.515c2.301 2.08 9.633 5.083 9.1-.715a8.537 8.537 0 00-.988-2.99 30.528 30.528 0 00-6.617-8.801z" fill="#fff"/><path d="M328.238 131.704a11.938 11.938 0 01-6.773-2.808 24.197 24.197 0 01-6.227-8.723c-.702-1.742-1.768-4.355-1.053-6.422a2.787 2.787 0 011.807-1.859c2.119-.637 4.914 1.3 5.447 1.742a29.032 29.032 0 012.288 1.898 30.979 30.979 0 016.76 8.97 9.109 9.109 0 011.04 3.198c.208 2.262-.728 3.237-1.56 3.64a3.755 3.755 0 01-1.729.364zm-11.336-18.785a1.98 1.98 0 00-.572.078 1.597 1.597 0 00-1.053 1.144c-.572 1.638.39 4.017 1.027 5.59a23 23 0 005.928 8.307c1.638 1.495 5.486 3.146 7.228 2.275.741-.377 1.04-1.196.923-2.509a8.19 8.19 0 00-.936-2.782 29.318 29.318 0 00-6.5-8.632c-.702-.65-1.443-1.3-2.197-1.833a7.436 7.436 0 00-3.848-1.638z" fill="#231F20"/><path d="M348.102 119.198a2.69 2.69 0 00-1.716-.481 2.168 2.168 0 00-1.014.559c-.524.54-.92 1.19-1.158 1.904a5.007 5.007 0 00-.22 2.217 12.09 12.09 0 001.365 4.251c1.989 4.134 4.68 8.138 8.671 10.4a7.522 7.522 0 002.314.897c7.098 1.3 4.16-5.746 2.418-8.931a27.537 27.537 0 00-10.66-10.816z" fill="#fff"/><path d="M357.865 139.647a9.525 9.525 0 01-1.625-.156 8.006 8.006 0 01-2.483-.962c-3.51-1.976-6.422-5.447-8.918-10.621a13.185 13.185 0 01-1.43-4.459 5.544 5.544 0 011.573-4.589 2.595 2.595 0 011.3-.702 3.196 3.196 0 012.093.533 28.335 28.335 0 0110.894 11.011c1.3 2.314 3.159 6.5 1.599 8.697a3.45 3.45 0 01-3.003 1.248zm-11.232-20.371h-.156c-.272.07-.519.214-.715.416a4.379 4.379 0 00-1.196 3.64 11.461 11.461 0 001.3 4.056c2.379 4.966 5.2 8.268 8.424 10.114a6.693 6.693 0 002.132.832c1.781.325 2.951.104 3.471-.624 1.014-1.417-.195-4.784-1.664-7.462a27.079 27.079 0 00-10.4-10.556 2.683 2.683 0 00-1.196-.416z" fill="#231F20"/><path d="M345.255 96.903a.625.625 0 01-.624-.572c0-.286-.715-7.267.481-11.245a.623.623 0 01.535-.45.631.631 0 01.674.8c-1.118 3.745-.455 10.713-.442 10.778a.636.636 0 01-.572.689h-.052zM269.114 47.906H10.856c-5.42 0-9.815 4.394-9.815 9.815v177.203c0 5.421 4.394 9.815 9.815 9.815h258.258c5.421 0 9.815-4.394 9.815-9.815V57.721c0-5.42-4.394-9.815-9.815-9.815z" fill="#fff"/><path d="M269.114 245.376H10.856a10.464 10.464 0 01-10.4-10.4V57.721a10.4 10.4 0 0110.4-10.4h258.258a10.4 10.4 0 0110.4 10.4v177.216a10.408 10.408 0 01-3.032 7.379 10.4 10.4 0 01-7.368 3.06zM10.856 48.543a9.191 9.191 0 00-9.19 9.178v177.216a9.193 9.193 0 009.19 9.178h258.258a9.195 9.195 0 009.178-9.178V57.721a9.187 9.187 0 00-9.178-9.178H10.856z" fill="#231F20"/><path d="M268.646 73.36H11.311V234.39h257.335V73.36z" fill="#231F20"/><path d="M268.646 235.041H11.311a.653.653 0 01-.65-.65V73.36a.65.65 0 01.65-.65h257.4a.652.652 0 01.65.65V234.39a.656.656 0 01-.213.484.644.644 0 01-.502.166zM12 233.741h256.1V74.01H12V233.74z" fill="#231F20"/><path d="M268.646 58.254H11.311V73.36h257.335V58.254z" fill="#845ADF"/><path d="M268.646 74.01H11.311a.65.65 0 01-.65-.65V58.254a.65.65 0 01.65-.65h257.4a.652.652 0 01.65.65V73.36a.653.653 0 01-.715.65zM12 72.71h256.1V58.904H12V72.71z" fill="#845ADF"/><path d="M62.908 89.389h-22.1a.623.623 0 01-.637-.624.637.637 0 01.637-.637h22.1a.626.626 0 01.624.637.61.61 0 01-.624.624z" fill="#fff"/><path d="M112.763 89.389h-44.2a.61.61 0 01-.624-.624.625.625 0 01.624-.637h44.2a.635.635 0 01.45 1.083.634.634 0 01-.45.178zM128.038 98.645h-44.2a.65.65 0 010-1.3h44.2a.652.652 0 01.46 1.11.652.652 0 01-.46.19z" fill="#845ADF"/><path d="M68.095 98.645h-22.1a.65.65 0 110-1.3h22.1a.65.65 0 010 1.3zM73.295 107.888h-22.1a.635.635 0 01-.45-1.083.616.616 0 01.45-.178h22.1a.603.603 0 01.445.179.611.611 0 01.179.445.628.628 0 01-.382.588.627.627 0 01-.242.049z" fill="#fff"/><path d="M135.929 107.888H80.666a.627.627 0 01-.624-.637.611.611 0 01.624-.624h55.263a.625.625 0 01.45 1.074.633.633 0 01-.45.187z" fill="#845ADF"/><path d="M78.482 117.131h-22.1a.636.636 0 01-.441-1.078.624.624 0 01.441-.183h22.1a.615.615 0 01.588.382.635.635 0 01-.588.879z" fill="#fff"/><path d="M147.356 117.131H81.654a.635.635 0 01-.45-1.083.616.616 0 01.45-.178h65.702a.625.625 0 01.45 1.074.633.633 0 01-.45.187z" fill="#845ADF"/><path d="M72.619 126.374h-22.1a.653.653 0 01-.65-.65.652.652 0 01.65-.65h22.1a.65.65 0 110 1.3z" fill="#fff"/><path d="M112.763 126.374H77.13a.653.653 0 01-.65-.65.652.652 0 01.65-.65h35.633a.65.65 0 110 1.3zM162.007 126.374H126.4a.65.65 0 010-1.3h35.633a.65.65 0 110 1.3h-.026z" fill="#845ADF"/><path d="M72.619 135.617h-22.1a.653.653 0 01-.65-.65.652.652 0 01.65-.65h22.1a.65.65 0 110 1.3z" fill="#fff"/><path d="M112.763 135.617H81.654a.653.653 0 01-.65-.65.652.652 0 01.65-.65h31.109a.65.65 0 110 1.3zM130.729 135.617h-12.714a.65.65 0 010-1.3h12.714a.65.65 0 110 1.3z" fill="#845ADF"/><path d="M72.619 144.86h-22.1a.616.616 0 01-.588-.382.64.64 0 01.588-.879h22.1a.625.625 0 01.624.637.617.617 0 01-.179.445.62.62 0 01-.445.179z" fill="#fff"/><path d="M123.93 144.86h-45.5a.624.624 0 01-.624-.624.637.637 0 01.624-.637h45.5a.636.636 0 01.588.879.63.63 0 01-.345.338.612.612 0 01-.243.044zM151.412 144.86h-22.1a.625.625 0 01-.45-1.075.636.636 0 01.45-.186h22.1a.635.635 0 01.441 1.078.623.623 0 01-.441.183z" fill="#845ADF"/><path d="M57.032 154.103h-11.7a.653.653 0 01-.65-.65.652.652 0 01.65-.65h11.7a.65.65 0 110 1.3z" fill="#fff"/><path d="M118.015 154.103H66.743a.653.653 0 01-.65-.65.652.652 0 01.65-.65h51.272a.65.65 0 110 1.3z" fill="#845ADF"/><path d="M67.419 163.359h-22.1a.654.654 0 01-.65-.65.652.652 0 01.65-.65h22.1a.65.65 0 110 1.3zM92.717 172.602h-44.2a.628.628 0 01-.58-.394.626.626 0 01-.044-.243.613.613 0 01.624-.624h44.2a.612.612 0 01.45.178.628.628 0 010 .896.635.635 0 01-.45.187z" fill="#fff"/><path d="M130.729 172.602h-30.693a.627.627 0 01-.624-.637.615.615 0 01.383-.58.603.603 0 01.241-.044h30.693a.625.625 0 01.45 1.074.633.633 0 01-.45.187zM173.122 172.602h-37.999a.63.63 0 01-.58-.394.616.616 0 01-.044-.243.606.606 0 01.383-.58.606.606 0 01.241-.044h37.999a.625.625 0 01.624.624.635.635 0 01-.624.637z" fill="#845ADF"/><path d="M114.843 181.845h-64.35a.635.635 0 01-.45-1.083.616.616 0 01.45-.178h64.35a.625.625 0 01.45 1.074.633.633 0 01-.45.187z" fill="#fff"/><path d="M148.188 181.845h-28.951a.633.633 0 01-.45-.187.633.633 0 010-.896.625.625 0 01.45-.178h28.951a.606.606 0 01.58.383.603.603 0 01.044.241.616.616 0 01-.178.45.63.63 0 01-.446.187zM239.175 181.845h-86.086a.635.635 0 01-.441-1.078.623.623 0 01.441-.183h86.086a.625.625 0 01.45 1.074.633.633 0 01-.45.187z" fill="#845ADF"/><path d="M80.666 191.088H50.233a.653.653 0 01-.65-.65.652.652 0 01.65-.65h30.433a.65.65 0 110 1.3z" fill="#fff"/><path d="M109.136 191.088H86.724a.653.653 0 01-.65-.65.652.652 0 01.65-.65h22.412a.65.65 0 110 1.3zM137.58 191.088h-22.412a.65.65 0 010-1.3h22.412a.65.65 0 110 1.3z" fill="#845ADF"/><path d="M104.04 200.331H50.233a.615.615 0 01-.588-.382.635.635 0 01.588-.879h53.807c.169 0 .331.067.45.187a.633.633 0 010 .896.625.625 0 01-.45.178z" fill="#fff"/><path d="M137.58 200.331h-26.91a.606.606 0 01-.58-.383.606.606 0 01-.044-.241.625.625 0 01.624-.637h26.91a.63.63 0 01.58.394c.031.077.046.16.044.243a.606.606 0 01-.383.58.606.606 0 01-.241.044zM185.16 200.331h-40.976a.606.606 0 01-.58-.383.606.606 0 01-.044-.241.625.625 0 01.624-.637h40.976a.64.64 0 01.45.187.622.622 0 01.187.45.63.63 0 01-.394.58.612.612 0 01-.243.044zM230.4 200.331h-40.924a.625.625 0 01-.45-1.074.633.633 0 01.45-.187H230.4c.169 0 .331.067.45.187a.633.633 0 010 .896.625.625 0 01-.45.178z" fill="#845ADF"/><path d="M95.941 209.574H63.844a.612.612 0 01-.45-.178.628.628 0 010-.896.627.627 0 01.45-.187h32.097a.625.625 0 01.624.637.613.613 0 01-.624.624z" fill="#fff"/><path d="M134.057 209.574H101.96a.606.606 0 01-.58-.383.606.606 0 01-.044-.241.625.625 0 01.624-.637h32.097a.64.64 0 01.45.187.622.622 0 01.187.45.63.63 0 01-.394.58.612.612 0 01-.243.044zM172.446 209.574h-32.097a.625.625 0 01-.45-1.074.625.625 0 01.45-.187h32.097a.63.63 0 01.58.394c.031.077.046.16.044.243a.606.606 0 01-.383.58.606.606 0 01-.241.044zM212.2 210.614h-32.11a.65.65 0 010-1.3h32.11a.65.65 0 110 1.3z" fill="#845ADF"/><path d="M90.741 218.817h-22.1a.603.603 0 01-.445-.179.611.611 0 01-.179-.445.625.625 0 01.624-.637h22.1a.635.635 0 01.45 1.083.617.617 0 01-.45.178z" fill="#fff"/><path d="M118.067 218.817h-22.1a.616.616 0 01-.588-.382.635.635 0 01.588-.879h22.1a.63.63 0 01.58.394c.031.077.046.16.044.243a.606.606 0 01-.383.58.606.606 0 01-.241.044zM169.157 219.753l-45.682-.936a.63.63 0 01-.58-.394.616.616 0 01-.044-.243.613.613 0 01.65-.624l45.682.936a.65.65 0 110 1.3l-.026-.039zM186.2 117.131h-29.9a.63.63 0 01-.58-.394.616.616 0 01-.044-.243.603.603 0 01.179-.445.606.606 0 01.445-.179h29.9a.625.625 0 01.45 1.074.633.633 0 01-.45.187zM208.3 117.222c-5.85 0-10.192 0-10.4-.13a.617.617 0 01-.378-.297.63.63 0 01.239-.855.63.63 0 01.477-.057c1.144.143 20.878.065 33.93 0a.625.625 0 01.45 1.074.633.633 0 01-.45.187c-6.968.026-16.588.078-23.868.078zM181.429 98.645h-43.42a.652.652 0 01-.46-1.11.652.652 0 01.46-.19h43.42a.652.652 0 01.46 1.11.652.652 0 01-.46.19zM233.364 98.645H190.1a.652.652 0 01-.46-1.11.652.652 0 01.46-.19h43.212a.652.652 0 01.46 1.11.652.652 0 01-.46.19h.052zM140.7 89.44h-14.378a.635.635 0 01-.275-1.13.623.623 0 01.457-.117c1.105.078 33.163 0 49.985 0a.635.635 0 01.45 1.083.634.634 0 01-.45.178c-7.059-.04-23.647-.013-35.789-.013z" fill="#845ADF"/><path d="M188.202 89.428a.612.612 0 01-.546-.364.689.689 0 01.338-.871c.507-.247 10.608-.273 30.004 0a.648.648 0 01.624.637.628.628 0 01-.394.58.623.623 0 01-.243.044c-11.297-.117-28.47-.221-29.536 0a.442.442 0 01-.247-.026z" fill="#fff"/><path d="M146.316 154.103H123.93a.655.655 0 01-.46-.19.655.655 0 010-.92.65.65 0 01.46-.19h22.386a.65.65 0 110 1.3zM94.953 163.359H78.482a.653.653 0 01-.65-.65.652.652 0 01.65-.65h16.471a.65.65 0 110 1.3z" fill="#845ADF"/><path d="M140.349 163.359h-39.143a.655.655 0 01-.46-.19.655.655 0 010-.92.65.65 0 01.46-.19h39.143a.65.65 0 110 1.3z" fill="#fff"/><path d="M224.017 163.359h-75.829a.65.65 0 010-1.3h75.829a.65.65 0 110 1.3z" fill="#845ADF"/><path d="M21.1 68.017a2.21 2.21 0 100-4.42 2.21 2.21 0 000 4.42z" fill="#231F20"/><path d="M28.848 68.017a2.21 2.21 0 100-4.42 2.21 2.21 0 000 4.42zM36.596 68.017a2.21 2.21 0 100-4.42 2.21 2.21 0 000 4.42zM181.325 273.235H98.632l9.347-28.496h63.999l9.347 28.496z" fill="#fff"/><path d="M181.325 273.885H98.632a.644.644 0 01-.535-.258.634.634 0 01-.09-.587l9.348-28.496a.652.652 0 01.624-.455h63.999a.648.648 0 01.624.455l9.347 28.496a.641.641 0 01-.09.587.635.635 0 01-.534.258zm-81.796-1.3h80.899l-8.918-27.196h-63.063l-8.918 27.196z" fill="#231F20"/><path d="M188.15 273.235H91.807a4.014 4.014 0 00-4.017 4.01 4.014 4.014 0 004.017 4.011h96.343a4.014 4.014 0 004.017-4.011 4.014 4.014 0 00-4.017-4.01z" fill="#fff"/><path d="M188.163 281.919H91.807a4.668 4.668 0 010-9.334h96.356a4.667 4.667 0 010 9.334zm-96.356-8.034a3.369 3.369 0 00-2.38 5.748 3.369 3.369 0 002.38.986h96.356a3.37 3.37 0 003.367-3.367 3.37 3.37 0 00-3.367-3.367H91.807zM101.115 265.682c1.3-.702 72.93-13.78 72.93-13.78l-2.353-7.163h-63.999l-6.578 20.943z" fill="#231F20"/><path d="M101.102 266.332a.636.636 0 01-.598-.466.626.626 0 01.013-.366l6.578-20.943a.613.613 0 01.598-.442h63.999a.615.615 0 01.598.429l2.353 7.15a.664.664 0 01.021.266.665.665 0 01-.088.252.664.664 0 01-.427.301c-19.63 3.588-70.993 13.065-72.8 13.754a.706.706 0 01-.247.065zm7.098-20.956l-6.11 19.435c8.606-1.95 58.734-11.128 71.162-13.403l-1.976-6.032H108.2z" fill="#231F20"/></svg>