<svg width="404" height="287" viewBox="0 0 404 287" fill="none" xmlns="http://www.w3.org/2000/svg">
<path d="M243.036 286.885C239.766 286.922 236.508 286.484 233.364 285.585C225.07 283.089 217.647 276.134 213.019 266.527C208.872 257.921 207.208 248.444 205.609 239.227C205.592 239.145 205.593 239.06 205.61 238.978C205.628 238.896 205.662 238.818 205.711 238.75C205.759 238.681 205.822 238.624 205.894 238.581C205.966 238.538 206.046 238.51 206.129 238.499C206.21 238.484 206.293 238.485 206.374 238.503C206.455 238.52 206.531 238.553 206.599 238.601C206.666 238.648 206.724 238.708 206.768 238.777C206.813 238.847 206.843 238.925 206.857 239.006C208.443 248.106 210.081 257.492 214.15 265.942C218.635 275.237 225.772 281.932 233.728 284.337C239.513 286.066 245.818 285.637 251.772 284.935C264.525 283.427 272.299 279.475 275.562 272.871C275.679 272.611 275.796 272.377 275.874 272.156C273.833 272.728 271.818 273.456 269.842 274.197C268.204 274.795 266.514 275.406 264.824 275.939C256.599 278.52 247.874 279.091 239.383 277.603C235.288 276.875 232.792 274.899 232.701 272.325C232.61 269.751 234.833 267.697 238.798 266.553C249.662 263.395 261.171 263.184 272.143 265.942C275.263 266.722 276.979 268.022 277.343 269.907C277.382 270.113 277.408 270.322 277.421 270.531C277.915 270.414 278.409 270.31 278.916 270.219C284.194 269.283 289.706 269.816 295.036 270.323C302.602 271.051 309.752 271.74 316.2 268.568C316.352 268.496 316.526 268.488 316.684 268.544C316.842 268.6 316.972 268.716 317.045 268.867C317.083 268.941 317.105 269.022 317.111 269.105C317.117 269.188 317.106 269.271 317.08 269.35C317.053 269.428 317.011 269.501 316.956 269.563C316.901 269.625 316.834 269.676 316.759 269.712C309.986 273.027 302.329 272.312 294.919 271.584C289.719 271.077 284.246 270.557 279.137 271.467C278.513 271.571 277.837 271.714 277.278 271.857C277.125 272.433 276.912 272.99 276.641 273.521C273.183 280.541 265.071 284.714 251.876 286.287C248.944 286.661 245.992 286.861 243.036 286.885ZM256.595 265.253C250.692 265.255 244.818 266.091 239.149 267.736C237.563 268.191 233.871 269.569 233.949 272.26C234.027 274.951 238.278 276.16 239.578 276.329C247.863 277.807 256.381 277.281 264.421 274.795C266.085 274.275 267.762 273.664 269.374 273.079C271.597 272.26 273.859 271.428 276.186 270.817C276.213 270.597 276.213 270.374 276.186 270.154C275.887 268.776 274.47 267.801 271.857 267.138C266.867 265.883 261.741 265.25 256.595 265.253Z" fill="#E6E7E8"/>
<path d="M396.137 87.9329H311.52C308.102 87.9329 305.332 90.7034 305.332 94.1209V275.081C305.332 278.498 308.102 281.269 311.52 281.269H396.137C399.555 281.269 402.325 278.498 402.325 275.081V94.1209C402.325 90.7034 399.555 87.9329 396.137 87.9329Z" fill="white"/>
<path d="M396.137 281.893H311.52C309.714 281.889 307.984 281.171 306.707 279.894C305.43 278.617 304.711 276.886 304.708 275.081V94.1079C304.711 92.3023 305.43 90.5717 306.707 89.2949C307.984 88.0182 309.714 87.2994 311.52 87.2959H396.137C397.945 87.2959 399.679 88.0132 400.958 89.2903C402.238 90.5674 402.959 92.3001 402.962 94.1079V275.081C402.959 276.889 402.238 278.621 400.958 279.898C399.679 281.176 397.945 281.893 396.137 281.893ZM311.52 88.5569C310.048 88.5569 308.636 89.1418 307.595 90.1828C306.554 91.2238 305.969 92.6357 305.969 94.1079V275.081C305.969 276.553 306.554 277.965 307.595 279.006C308.636 280.047 310.048 280.632 311.52 280.632H396.137C397.609 280.632 399.021 280.047 400.062 279.006C401.103 277.965 401.688 276.553 401.688 275.081V94.1079C401.688 92.6357 401.103 91.2238 400.062 90.1828C399.021 89.1418 397.609 88.5569 396.137 88.5569H311.52Z" fill="#231F20"/>
<path d="M397.229 105.418H310.428V254.203H397.229V105.418Z" fill="#845ADF"/>
<path d="M362.09 261.444H345.567C343.471 261.444 341.771 263.143 341.771 265.24V271.571C341.771 273.667 343.471 275.367 345.567 275.367H362.09C364.186 275.367 365.886 273.667 365.886 271.571V265.24C365.886 263.143 364.186 261.444 362.09 261.444Z" fill="white"/>
<path d="M362.077 275.991H345.58C344.404 275.991 343.277 275.524 342.445 274.693C341.614 273.861 341.147 272.734 341.147 271.558V265.253C341.147 264.077 341.614 262.95 342.445 262.118C343.277 261.287 344.404 260.82 345.58 260.82H362.077C362.66 260.818 363.238 260.932 363.777 261.154C364.317 261.376 364.807 261.702 365.22 262.114C365.633 262.526 365.961 263.015 366.184 263.553C366.408 264.092 366.523 264.67 366.523 265.253V271.558C366.519 272.735 366.05 273.862 365.216 274.693C364.383 275.524 363.254 275.991 362.077 275.991ZM345.58 262.081C344.739 262.081 343.932 262.415 343.337 263.01C342.742 263.605 342.408 264.412 342.408 265.253V271.558C342.408 272.399 342.742 273.206 343.337 273.801C343.932 274.396 344.739 274.73 345.58 274.73H362.077C362.918 274.73 363.725 274.396 364.32 273.801C364.915 273.206 365.249 272.399 365.249 271.558V265.253C365.249 264.412 364.915 263.605 364.32 263.01C363.725 262.415 362.918 262.081 362.077 262.081H345.58Z" fill="#E6E7E8"/>
<path d="M362.597 96.9029H337.897C337.814 96.9047 337.731 96.8898 337.654 96.8592C337.577 96.8286 337.507 96.7829 337.447 96.7248C337.388 96.6667 337.341 96.5973 337.309 96.5208C337.277 96.4442 337.26 96.362 337.26 96.2789C337.26 96.11 337.327 95.9479 337.447 95.8285C337.566 95.709 337.728 95.6419 337.897 95.6419H362.597C362.68 95.6419 362.762 95.6584 362.839 95.6906C362.915 95.7228 362.985 95.7699 363.043 95.8292C363.101 95.8886 363.147 95.9589 363.177 96.0361C363.208 96.1133 363.223 96.1959 363.221 96.2789C363.223 96.3613 363.208 96.4433 363.177 96.5198C363.146 96.5963 363.1 96.6658 363.042 96.7241C362.984 96.7824 362.914 96.8283 362.838 96.859C362.761 96.8898 362.679 96.9047 362.597 96.9029Z" fill="#E6E7E8"/>
<path d="M369.37 96.9029H366.055C365.89 96.9029 365.731 96.8372 365.614 96.7202C365.497 96.6031 365.431 96.4444 365.431 96.2789C365.431 96.1122 365.496 95.9521 365.613 95.833C365.73 95.7139 365.888 95.6453 366.055 95.6419H369.37C369.539 95.6419 369.701 95.709 369.82 95.8285C369.94 95.9479 370.007 96.11 370.007 96.2789C370.007 96.362 369.99 96.4442 369.958 96.5208C369.926 96.5973 369.879 96.6667 369.82 96.7248C369.76 96.783 369.69 96.8286 369.613 96.8592C369.536 96.8898 369.453 96.9047 369.37 96.9029Z" fill="#E6E7E8"/>
<path d="M386.205 198.901H321.4C320.111 198.901 318.874 198.389 317.962 197.477C317.05 196.565 316.538 195.328 316.538 194.039V162.033C316.536 161.393 316.661 160.76 316.904 160.168C317.148 159.577 317.506 159.039 317.958 158.587C318.409 158.134 318.946 157.774 319.536 157.529C320.127 157.284 320.761 157.158 321.4 157.158H386.153C387.446 157.158 388.686 157.672 389.6 158.586C390.514 159.5 391.028 160.74 391.028 162.033V194.039C391.025 195.321 390.517 196.549 389.614 197.459C388.711 198.369 387.487 198.887 386.205 198.901ZM321.4 158.432C320.445 158.432 319.529 158.811 318.854 159.487C318.178 160.162 317.799 161.078 317.799 162.033V194.039C317.799 194.994 318.178 195.91 318.854 196.585C319.529 197.261 320.445 197.64 321.4 197.64H386.153C387.108 197.64 388.024 197.261 388.699 196.585C389.375 195.91 389.754 194.994 389.754 194.039V162.033C389.754 161.078 389.375 160.162 388.699 159.487C388.024 158.811 387.108 158.432 386.153 158.432H321.4Z" fill="white"/>
<path d="M317.214 195.222C317.084 195.219 316.957 195.177 316.851 195.1C316.746 195.023 316.666 194.916 316.624 194.793C316.581 194.669 316.578 194.536 316.614 194.41C316.649 194.285 316.723 194.173 316.824 194.091L348.908 168.702C349.032 168.607 349.187 168.562 349.343 168.574C349.499 168.585 349.645 168.654 349.753 168.767L368.902 188.631C369.02 188.75 369.087 188.911 369.087 189.079C369.087 189.247 369.02 189.409 368.902 189.528C368.844 189.586 368.775 189.632 368.699 189.664C368.624 189.695 368.542 189.711 368.46 189.711C368.378 189.711 368.297 189.695 368.221 189.664C368.145 189.632 368.076 189.586 368.018 189.528L349.272 170.028L317.63 195.066C317.516 195.168 317.367 195.224 317.214 195.222Z" fill="white"/>
<path d="M390.443 188.852C390.354 188.851 390.266 188.83 390.185 188.792C390.104 188.754 390.033 188.699 389.975 188.631L379.341 176.58L367.186 186.733C367.058 186.84 366.894 186.892 366.728 186.877C366.562 186.862 366.409 186.782 366.302 186.655C366.195 186.527 366.143 186.363 366.158 186.197C366.173 186.031 366.252 185.878 366.38 185.771L379.003 175.215C379.12 175.101 379.276 175.038 379.439 175.038C379.601 175.038 379.758 175.101 379.874 175.215L390.911 187.734C390.969 187.792 391.015 187.861 391.047 187.937C391.078 188.012 391.095 188.094 391.095 188.176C391.095 188.258 391.078 188.339 391.047 188.415C391.015 188.491 390.969 188.56 390.911 188.618C390.857 188.691 390.787 188.751 390.705 188.792C390.624 188.832 390.534 188.853 390.443 188.852Z" fill="white"/>
<path d="M368.447 174.123C367.471 174.126 366.517 173.838 365.705 173.298C364.893 172.758 364.259 171.988 363.885 171.087C363.51 170.187 363.411 169.195 363.601 168.238C363.791 167.281 364.26 166.402 364.95 165.712C365.64 165.022 366.519 164.553 367.476 164.363C368.433 164.173 369.425 164.272 370.326 164.646C371.226 165.021 371.996 165.655 372.536 166.467C373.077 167.279 373.364 168.233 373.361 169.209C373.358 170.511 372.839 171.759 371.918 172.68C370.997 173.601 369.749 174.12 368.447 174.123ZM368.447 165.543C367.721 165.54 367.011 165.753 366.407 166.154C365.802 166.556 365.33 167.127 365.051 167.797C364.771 168.467 364.697 169.204 364.837 169.916C364.977 170.628 365.325 171.283 365.837 171.797C366.349 172.311 367.003 172.661 367.714 172.804C368.426 172.946 369.163 172.874 369.834 172.597C370.505 172.32 371.078 171.85 371.481 171.247C371.885 170.644 372.1 169.935 372.1 169.209C372.1 168.239 371.716 167.308 371.031 166.621C370.346 165.934 369.417 165.546 368.447 165.543Z" fill="white"/>
<path d="M326.444 229.984H322.947C320.492 229.984 318.501 231.974 318.501 234.43V239.89C318.501 242.345 320.492 244.336 322.947 244.336H326.444C328.899 244.336 330.89 242.345 330.89 239.89V234.43C330.89 231.974 328.899 229.984 326.444 229.984Z" fill="white"/>
<path d="M345.866 229.984H342.369C339.914 229.984 337.923 231.974 337.923 234.43V239.89C337.923 242.345 339.914 244.336 342.369 244.336H345.866C348.321 244.336 350.312 242.345 350.312 239.89V234.43C350.312 231.974 348.321 229.984 345.866 229.984Z" fill="white"/>
<path d="M365.288 229.984H361.791C359.336 229.984 357.345 231.974 357.345 234.43V239.89C357.345 242.345 359.336 244.336 361.791 244.336H365.288C367.743 244.336 369.734 242.345 369.734 239.89V234.43C369.734 231.974 367.743 229.984 365.288 229.984Z" fill="white"/>
<path d="M384.71 229.984H381.213C378.758 229.984 376.767 231.974 376.767 234.43V239.89C376.767 242.345 378.758 244.336 381.213 244.336H384.71C387.165 244.336 389.156 242.345 389.156 239.89V234.43C389.156 231.974 387.165 229.984 384.71 229.984Z" fill="white"/>
<path d="M389.52 117.82H318.137C318.054 117.822 317.971 117.807 317.894 117.776C317.817 117.746 317.747 117.7 317.687 117.642C317.628 117.584 317.581 117.514 317.549 117.438C317.517 117.361 317.5 117.279 317.5 117.196C317.5 117.027 317.567 116.865 317.687 116.746C317.806 116.626 317.968 116.559 318.137 116.559H389.52C389.689 116.559 389.851 116.626 389.97 116.746C390.09 116.865 390.157 117.027 390.157 117.196C390.157 117.279 390.14 117.361 390.108 117.438C390.076 117.514 390.029 117.584 389.97 117.642C389.91 117.7 389.84 117.746 389.763 117.776C389.686 117.807 389.603 117.822 389.52 117.82Z" fill="white"/>
<path d="M389.52 127.882H318.137C317.965 127.882 317.799 127.813 317.677 127.692C317.556 127.57 317.487 127.404 317.487 127.232C317.487 127.06 317.556 126.894 317.677 126.772C317.799 126.65 317.965 126.582 318.137 126.582H389.52C389.692 126.582 389.858 126.65 389.98 126.772C390.102 126.894 390.17 127.06 390.17 127.232C390.17 127.404 390.102 127.57 389.98 127.692C389.858 127.813 389.692 127.882 389.52 127.882Z" fill="white"/>
<path d="M389.52 137.944H318.137C317.968 137.944 317.806 137.877 317.687 137.757C317.567 137.638 317.5 137.476 317.5 137.307C317.5 137.224 317.517 137.142 317.549 137.065C317.581 136.988 317.628 136.919 317.687 136.861C317.747 136.803 317.817 136.757 317.894 136.727C317.971 136.696 318.054 136.681 318.137 136.683H389.52C389.603 136.681 389.686 136.696 389.763 136.727C389.84 136.757 389.91 136.803 389.97 136.861C390.029 136.919 390.076 136.988 390.108 137.065C390.14 137.142 390.157 137.224 390.157 137.307C390.157 137.476 390.09 137.638 389.97 137.757C389.851 137.877 389.689 137.944 389.52 137.944Z" fill="white"/>
<path d="M389.52 148.006H318.137C317.965 148.006 317.799 147.937 317.677 147.816C317.556 147.694 317.487 147.528 317.487 147.356C317.487 147.184 317.556 147.018 317.677 146.896C317.799 146.774 317.965 146.706 318.137 146.706H389.52C389.692 146.706 389.858 146.774 389.98 146.896C390.102 147.018 390.17 147.184 390.17 147.356C390.17 147.528 390.102 147.694 389.98 147.816C389.858 147.937 389.692 148.006 389.52 148.006Z" fill="white"/>
<path d="M389.52 210.328H318.137C317.965 210.328 317.799 210.259 317.677 210.138C317.556 210.016 317.487 209.85 317.487 209.678C317.487 209.506 317.556 209.34 317.677 209.218C317.799 209.096 317.965 209.028 318.137 209.028H389.52C389.692 209.028 389.858 209.096 389.98 209.218C390.102 209.34 390.17 209.506 390.17 209.678C390.17 209.85 390.102 210.016 389.98 210.138C389.858 210.259 389.692 210.328 389.52 210.328Z" fill="white"/>
<path d="M389.52 220.403H318.137C318.054 220.405 317.971 220.39 317.894 220.359C317.817 220.329 317.747 220.283 317.687 220.225C317.628 220.167 317.581 220.097 317.549 220.021C317.517 219.944 317.5 219.862 317.5 219.779C317.5 219.61 317.567 219.448 317.687 219.328C317.806 219.209 317.968 219.142 318.137 219.142H389.52C389.689 219.142 389.851 219.209 389.97 219.328C390.09 219.448 390.157 219.61 390.157 219.779C390.157 219.862 390.14 219.944 390.108 220.021C390.076 220.097 390.029 220.167 389.97 220.225C389.91 220.283 389.84 220.329 389.763 220.359C389.686 220.39 389.603 220.405 389.52 220.403Z" fill="white"/>
<path d="M376.221 20.0079C376.221 20.0079 377.82 13.1959 376.338 9.32194C375.902 8.22946 375.131 7.30292 374.136 6.67483C373.142 6.04674 371.974 5.74926 370.8 5.82494C370.8 5.82494 360.036 3.43294 356.929 0.624939L358.333 5.59094C356.46 5.45936 354.631 4.9602 352.951 4.12194C352.734 4.97089 352.749 5.86248 352.993 6.70387C353.238 7.54526 353.704 8.30568 354.342 8.90594C353.567 9.27733 352.718 9.47012 351.859 9.47012C351 9.47012 350.151 9.27733 349.376 8.90594C349.376 8.90594 352.327 16.1469 359.191 15.4059C363.663 14.7429 371.58 21.5029 376.221 20.0079Z" fill="white"/>
<path d="M374.7 20.8659C372.243 20.8659 369.37 19.5659 366.562 18.2659C363.754 16.9659 361.115 15.6659 359.23 15.9389C351.963 16.7839 348.83 9.19192 348.752 9.11392C348.706 8.99138 348.698 8.85748 348.73 8.73048C348.763 8.60347 348.833 8.48955 348.933 8.40425C349.033 8.31896 349.156 8.26643 349.286 8.25385C349.417 8.24126 349.548 8.26922 349.662 8.33392C350.744 8.89857 352.003 9.01981 353.172 8.67192C352.698 8.00089 352.374 7.23516 352.224 6.42731C352.074 5.61947 352.1 4.78865 352.301 3.99192C352.322 3.90302 352.363 3.82027 352.422 3.75029C352.481 3.68031 352.555 3.62505 352.639 3.58892C352.723 3.55353 352.814 3.5353 352.905 3.5353C352.997 3.5353 353.088 3.55353 353.172 3.58892C354.528 4.21288 355.962 4.65019 357.436 4.88892L356.279 0.806924C356.243 0.67419 356.25 0.533462 356.299 0.404983C356.348 0.276505 356.437 0.166898 356.552 0.0919248C356.669 0.0203555 356.806 -0.0107836 356.942 0.00331307C357.078 0.0174097 357.206 0.075958 357.306 0.169924C360.114 2.76992 369.773 4.96692 370.813 5.21392C372.114 5.12881 373.408 5.46119 374.507 6.16265C375.606 6.86412 376.452 7.89805 376.923 9.11392C378.47 13.1179 376.923 19.8779 376.832 20.1639C376.812 20.2689 376.763 20.3664 376.693 20.4464C376.622 20.5265 376.531 20.586 376.429 20.6189C375.87 20.7935 375.286 20.8769 374.7 20.8659ZM359.672 14.5999C361.804 14.5999 364.378 15.8089 367.095 17.0699C370.202 18.5259 373.413 20.0209 375.688 19.5009C375.987 18.0709 376.988 12.7019 375.753 9.55592C375.364 8.57949 374.674 7.75216 373.784 7.19361C372.893 6.63506 371.848 6.37425 370.8 6.44892H370.605C370.215 6.35792 362.116 4.55092 357.956 2.14592L358.879 5.40892C358.905 5.50389 358.909 5.60356 358.891 5.7004C358.873 5.79724 358.834 5.88872 358.775 5.96792C358.715 6.04525 358.638 6.10776 358.55 6.15059C358.462 6.19342 358.366 6.21544 358.268 6.21492C356.58 6.11445 354.924 5.70925 353.38 5.01892C353.305 5.64752 353.384 6.28492 353.611 6.87607C353.837 7.46722 354.204 7.99434 354.68 8.41192C354.758 8.4811 354.819 8.56779 354.858 8.66494C354.896 8.76208 354.911 8.86692 354.901 8.97092C354.891 9.07668 354.853 9.17787 354.791 9.2645C354.73 9.35114 354.646 9.42022 354.55 9.46492C353.329 10.0151 351.973 10.1959 350.65 9.98492C351.846 11.9349 354.55 15.1849 359.087 14.6519C359.281 14.6212 359.476 14.6038 359.672 14.5999Z" fill="#231F20"/>
<path d="M385.308 77.0129C385.308 77.0129 394.694 56.4859 393.55 43.0309C392.406 29.5759 383.592 28.7309 380.55 28.5619C377.508 28.3929 361.297 26.2089 355.382 33.4499C349.467 40.6909 351.001 75.5699 351.001 75.5699L385.308 77.0129Z" fill="#845ADF"/>
<path d="M350.312 68.6669C343.409 71.8247 336.815 75.6198 330.617 80.0029C325.131 83.7209 322.024 122.968 322.024 122.968C322.024 122.968 323.155 129.273 330.448 128.285L349.649 84.566C349.649 84.566 356.5 68.4979 350.312 68.6669Z" fill="#231F20"/>
<path d="M328.953 128.987C327.197 129.032 325.481 128.461 324.101 127.374C322.722 126.286 321.766 124.751 321.4 123.033C321.394 122.981 321.394 122.929 321.4 122.877C321.725 118.821 324.702 83.2269 330.266 79.4439C336.51 75.0537 343.147 71.2502 350.091 68.0819C350.163 68.0626 350.24 68.0626 350.312 68.0819C350.798 68.0451 351.286 68.1362 351.726 68.346C352.166 68.5558 352.543 68.8771 352.821 69.2779C355.252 72.8529 350.767 83.5779 350.221 84.8779L331.02 128.61C330.976 128.708 330.907 128.793 330.821 128.857C330.734 128.921 330.633 128.961 330.526 128.974C330.002 129.014 329.477 129.018 328.953 128.987ZM322.7 122.903C322.843 123.579 324.091 128.298 330.058 127.674L349.116 84.2929C350.416 81.1729 353.536 72.489 351.807 69.993C351.663 69.783 351.469 69.6131 351.241 69.4993C351.014 69.3856 350.761 69.3318 350.507 69.343C343.69 72.4966 337.164 76.2465 331.007 80.5489C326.691 83.3959 323.532 111.983 322.7 122.903Z" fill="#231F20"/>
<path d="M386.075 72.6969C386.075 72.6969 358.502 73.4899 352.015 72.5409C352.015 72.5409 351.651 72.6189 346.893 81.3809C342.135 90.1429 348.973 130.196 348.973 130.196C348.973 130.196 355.239 136.826 360.192 135.877L366.055 90.2079C366.055 90.2079 376.052 90.5069 381.655 86.5289C385.503 83.7339 385.334 77.7669 386.075 72.6969Z" fill="#231F20"/>
<path d="M359.178 136.605C354.212 136.605 348.778 130.885 348.505 130.625C348.42 130.536 348.365 130.422 348.349 130.3C348.063 128.662 341.524 89.9999 346.334 81.0819C351.144 72.1639 351.534 71.9819 351.885 71.9819H352.106C358.463 72.9309 385.789 72.1509 386.062 72.1379C386.155 72.1322 386.248 72.1479 386.335 72.1839C386.421 72.2199 386.498 72.2751 386.559 72.3454C386.621 72.4157 386.665 72.4992 386.69 72.5895C386.714 72.6797 386.717 72.7743 386.699 72.8659C386.569 73.8019 386.452 74.7769 386.348 75.7519C385.867 80.1459 385.373 84.6829 381.967 87.1269C377.027 90.6629 368.863 90.9229 366.614 90.9229L360.816 135.903C360.799 136.036 360.742 136.16 360.651 136.258C360.56 136.356 360.44 136.423 360.309 136.449C359.937 136.534 359.559 136.587 359.178 136.605ZM349.558 129.897C350.429 130.781 355.512 135.695 359.62 135.318L365.431 90.1299C365.447 89.9724 365.524 89.8275 365.646 89.7256C365.767 89.6238 365.923 89.573 366.081 89.5839C366.185 89.5839 375.922 89.8179 381.239 86.0219C384.177 83.9029 384.645 79.6519 385.139 75.5309C385.217 74.8029 385.295 74.0619 385.386 73.3469C380.94 73.4639 358.775 74.0099 352.327 73.2039C351.95 73.7499 350.793 75.5829 347.478 81.6799C343.006 89.8569 349.051 126.868 349.558 129.897Z" fill="#231F20"/>
<path d="M355.369 33.4499C355.369 33.4499 351.001 41.8609 348.427 46.1769C345.965 49.88 343.232 53.3953 340.25 56.6939C340.25 56.6939 320.425 63.7399 320.308 64.1169C320.191 64.4939 322.18 71.1629 322.18 71.1629C322.18 71.1629 342.98 69.6679 346.412 68.0429C349.844 66.4179 356.812 58.4229 356.812 58.4229L355.369 33.4499Z" fill="#845ADF"/>
<path d="M363.442 28.9389L364.625 36.1149C365.364 37.1801 366.466 37.9393 367.725 38.2504C368.984 38.5615 370.313 38.4031 371.463 37.8049C376 35.8029 376 32.3709 376 32.3709L373.582 19.1109C373.582 19.1109 369.396 17.4859 367.225 9.32193C367.225 9.32193 356.825 10.1149 357.54 14.0019C357.54 14.0019 357.41 21.3209 358.515 24.8829C358.912 25.9298 359.575 26.8548 360.439 27.5662C361.303 28.2777 362.339 28.7509 363.442 28.9389Z" fill="white"/>
<path d="M368.915 39.0269C367.965 38.9969 367.034 38.7463 366.197 38.2951C365.36 37.8439 364.639 37.2043 364.092 36.4269C364.051 36.3537 364.02 36.2749 364.001 36.1929L362.883 29.4199C361.742 29.1919 360.68 28.6685 359.804 27.9021C358.928 27.1356 358.269 26.1529 357.891 25.0519C356.76 21.4249 356.877 14.2619 356.877 13.9629C356.827 13.6057 356.853 13.2422 356.951 12.8953C357.05 12.5484 357.219 12.2258 357.449 11.9479C359.49 9.34791 366.367 8.72391 367.147 8.67191C367.295 8.66067 367.442 8.70125 367.563 8.78666C367.684 8.87208 367.771 8.99699 367.81 9.13991C369.851 16.8229 373.751 18.4869 373.79 18.4999C373.89 18.5381 373.978 18.6011 374.046 18.6831C374.114 18.765 374.16 18.8631 374.18 18.9679L376.598 32.2279C376.598 32.5009 376.598 36.2449 371.723 38.3639C370.843 38.778 369.887 39.0038 368.915 39.0269ZM365.223 35.8679C365.892 36.776 366.866 37.4134 367.966 37.6639C369.066 37.9145 370.219 37.7615 371.216 37.2329C375.246 35.4649 375.35 32.4879 375.35 32.3579L372.997 19.5399C371.931 18.9809 368.655 16.7319 366.731 9.99791C364.469 10.2319 359.776 11.0379 358.437 12.7539C358.306 12.9085 358.212 13.0901 358.16 13.2858C358.108 13.4814 358.101 13.686 358.138 13.8849C358.138 14.0799 358.034 21.2689 359.1 24.7009C359.443 25.6373 360.03 26.465 360.8 27.0982C361.57 27.7314 362.496 28.147 363.481 28.3019L363.741 28.3799C363.825 28.4275 363.898 28.4929 363.954 28.5715C364.01 28.6501 364.048 28.74 364.066 28.8349L365.223 35.8679Z" fill="#231F20"/>
<path d="M370.8 19.3709C370.851 18.6994 371.115 18.0617 371.554 17.5509C371.984 17.0917 372.49 16.7092 373.049 16.4199C373.341 16.2349 373.669 16.1151 374.011 16.0689C374.255 16.0668 374.498 16.1109 374.726 16.1989C375.258 16.3652 375.717 16.7094 376.026 17.1739C376.229 17.5769 376.331 18.0229 376.325 18.4739C376.362 18.9747 376.327 19.4781 376.221 19.9689C376.108 20.4566 375.9 20.917 375.607 21.3232C375.315 21.7294 374.945 22.0733 374.518 22.3349C373.655 22.8514 372.626 23.0144 371.645 22.7899" fill="white"/>
<path d="M372.529 23.5699C372.179 23.5659 371.83 23.5223 371.489 23.4399C371.325 23.3999 371.184 23.2967 371.097 23.153C371.009 23.0093 370.982 22.8367 371.021 22.6729C371.041 22.5922 371.076 22.5163 371.126 22.4495C371.175 22.3828 371.237 22.3266 371.309 22.2842C371.38 22.2418 371.459 22.2141 371.542 22.2027C371.624 22.1914 371.708 22.1965 371.788 22.2179C372.608 22.4031 373.469 22.2683 374.193 21.8409C374.905 21.3925 375.414 20.6833 375.61 19.8649C375.696 19.4373 375.727 19.0004 375.701 18.5649C375.713 18.2055 375.637 17.8486 375.48 17.5249C375.24 17.1769 374.886 16.9239 374.479 16.8099C374.327 16.7616 374.17 16.7311 374.011 16.7189C373.764 16.7642 373.529 16.8617 373.322 17.0049C372.836 17.2528 372.396 17.5826 372.022 17.9799C371.667 18.3855 371.456 18.8977 371.424 19.4359C371.411 19.6037 371.333 19.7598 371.207 19.8714C371.081 19.9829 370.916 20.0412 370.748 20.0339C370.665 20.029 370.583 20.0075 370.509 19.9707C370.434 19.9338 370.367 19.8823 370.313 19.8193C370.258 19.7563 370.217 19.683 370.191 19.6038C370.166 19.5246 370.156 19.4409 370.163 19.3579C370.22 18.5485 370.534 17.7786 371.06 17.1609C371.532 16.6315 372.096 16.1912 372.724 15.8609C373.118 15.6169 373.563 15.4657 374.024 15.4189C374.352 15.4181 374.678 15.4753 374.986 15.5879C375.687 15.7984 376.285 16.2617 376.663 16.8879C376.923 17.3897 377.057 17.9476 377.053 18.5129C377.086 19.0703 377.046 19.6296 376.936 20.1769C376.705 21.1488 376.154 22.0147 375.371 22.635C374.588 23.2552 373.619 23.5937 372.62 23.5959L372.529 23.5699Z" fill="#231F20"/>
<path d="M364.222 17.4469C364.222 17.4469 362.272 21.5029 362.922 22.0619C363.572 22.6209 365.197 21.9579 365.197 21.9579" fill="white"/>
<path d="M363.754 22.9069C363.325 22.9284 362.902 22.7997 362.558 22.5429C362.285 22.3219 361.492 21.6719 363.663 17.1739C363.736 17.0261 363.864 16.9124 364.019 16.8566C364.174 16.8008 364.345 16.8074 364.495 16.8749C364.571 16.9097 364.639 16.9595 364.696 17.0212C364.752 17.0829 364.796 17.1553 364.823 17.2341C364.851 17.3129 364.863 17.3966 364.858 17.48C364.853 17.5635 364.831 17.6451 364.794 17.7199C364.162 18.9451 363.724 20.2607 363.494 21.6199C364.018 21.6828 364.55 21.5972 365.028 21.3729C365.184 21.3114 365.357 21.3122 365.512 21.3752C365.667 21.4381 365.791 21.5584 365.86 21.7109C365.892 21.7886 365.908 21.8718 365.907 21.9557C365.907 22.0396 365.89 22.1226 365.857 22.1999C365.825 22.2772 365.777 22.3473 365.717 22.4062C365.658 22.465 365.587 22.5115 365.509 22.5429C364.951 22.7689 364.356 22.8922 363.754 22.9069Z" fill="#231F20"/>
<path d="M367.43 17.2784C367.773 17.2436 368.012 16.8274 367.963 16.3488C367.915 15.8702 367.597 15.5105 367.254 15.5453C366.911 15.5802 366.673 15.9964 366.721 16.4749C366.77 16.9535 367.087 17.3132 367.43 17.2784Z" fill="#231F20"/>
<path d="M362.166 18.2059C362.51 18.1735 362.751 17.7589 362.706 17.28C362.661 16.8011 362.346 16.4392 362.003 16.4716C361.659 16.504 361.418 16.9186 361.463 17.3975C361.509 17.8764 361.823 18.2383 362.166 18.2059Z" fill="#231F20"/>
<path d="M364.794 26.0919C363.603 26.0668 362.427 25.8245 361.323 25.3769C361.246 25.3445 361.177 25.297 361.119 25.2373C361.061 25.1776 361.015 25.1069 360.985 25.0294C360.955 24.9519 360.94 24.8691 360.943 24.7859C360.945 24.7027 360.964 24.6208 360.998 24.5449C361.069 24.3947 361.195 24.2773 361.349 24.2169C361.504 24.1564 361.676 24.1575 361.83 24.2199C361.83 24.2199 364.781 25.5199 366.77 24.3889C367.291 24.051 367.726 23.5969 368.042 23.0623C368.358 22.5277 368.545 21.9272 368.59 21.3079C368.618 21.1355 368.712 20.9812 368.854 20.8788C368.995 20.7764 369.172 20.7343 369.344 20.7619C369.516 20.7895 369.671 20.8844 369.773 21.0259C369.876 21.1673 369.918 21.3435 369.89 21.5159C369.818 22.326 369.557 23.1078 369.128 23.7987C368.699 24.4896 368.114 25.0702 367.42 25.4939C366.612 25.9204 365.707 26.1267 364.794 26.0919Z" fill="#231F20"/>
<path d="M363.442 28.9389C363.442 28.9389 368.07 29.2249 370.462 27.2879C370.462 27.2879 368.538 33.7879 364.261 33.7879L363.442 28.9389Z" fill="#231F20"/>
<path d="M364.3 34.5029C364.151 34.5041 364.006 34.4506 363.893 34.3524C363.781 34.2542 363.708 34.1181 363.689 33.9699L362.87 29.0559C362.852 28.9611 362.857 28.8633 362.884 28.7707C362.911 28.678 362.96 28.5931 363.026 28.5229C363.089 28.452 363.168 28.3963 363.255 28.3603C363.343 28.3242 363.438 28.3087 363.533 28.3149C363.533 28.3149 367.953 28.5619 370.111 26.8069C370.217 26.7258 370.346 26.68 370.479 26.6761C370.613 26.6721 370.744 26.7102 370.855 26.7849C370.965 26.8596 371.05 26.9672 371.096 27.0924C371.142 27.2177 371.148 27.3543 371.112 27.4829C371.034 27.7559 369.019 34.4249 364.313 34.5029H364.3ZM364.3 29.6019L364.898 33.1899C367.108 32.8129 368.577 30.3949 369.344 28.7309C367.69 29.3282 365.941 29.6189 364.183 29.5889L364.3 29.6019Z" fill="#231F20"/>
<path d="M389.156 31.903C392.861 32.5529 407.85 67.2109 402.715 71.1629C394.707 77.3379 366.835 71.1629 366.835 71.1629L369.11 60.4119C369.11 60.4119 387.024 60.9189 387.31 57.2399C387.596 53.5609 376.91 36.5309 378.288 33.9829C379.666 31.4349 389.156 31.903 389.156 31.903Z" fill="#845ADF"/>
<path d="M371.034 63.8959C368.059 64.0853 365.072 63.9414 362.129 63.4669C359.95 62.9376 357.715 62.68 355.473 62.6999C352.519 62.8406 349.614 63.5052 346.893 64.6629C346.777 64.6994 346.674 64.7668 346.594 64.8579C346.334 65.2219 346.958 65.5859 347.413 65.5989C348.594 65.6219 349.772 65.473 350.91 65.1569C348.093 66.1977 345.43 67.6146 342.993 69.3689C342.707 69.5639 342.408 69.8759 342.538 70.1879C342.668 70.4999 343.24 70.4479 343.604 70.2789L350 67.3539C348.341 68.0191 346.803 68.9548 345.45 70.1229C345.268 70.2919 345.047 70.5129 345.112 70.7599C345.177 71.0069 345.84 71.1109 346.243 70.9159C348.191 69.9414 350.053 68.8019 351.807 67.5099L347.907 70.5519C347.907 70.8639 348.206 71.1369 348.531 71.1499C348.857 71.1294 349.171 71.0216 349.441 70.8379L353.848 68.2379L351.105 70.1619C350.663 70.4609 350.169 70.9549 350.39 71.4619C350.611 71.9689 351.482 71.8519 352.054 71.6049C354.315 70.6247 356.678 69.9009 359.1 69.4469C359.944 69.1719 360.816 68.9931 361.7 68.9139C363.062 69.0937 364.406 69.3895 365.717 69.7979C367.719 70.2399 369.708 70.6949 371.697 71.0979" fill="white"/>
<path d="M351.027 72.4369C350.837 72.4407 350.647 72.4098 350.468 72.3459C350.321 72.2922 350.186 72.2091 350.073 72.1019C349.959 71.9946 349.868 71.8654 349.805 71.7219C349.748 71.5952 349.717 71.458 349.714 71.3189C349.356 71.5715 348.93 71.7118 348.492 71.7219C348.315 71.7129 348.142 71.6679 347.984 71.5897C347.825 71.5114 347.684 71.4016 347.569 71.2669C347.496 71.18 347.435 71.0838 347.387 70.9809C347.114 71.1369 346.828 71.2799 346.542 71.4229C346.325 71.5424 346.085 71.6135 345.838 71.6314C345.592 71.6494 345.344 71.6137 345.112 71.5269C344.98 71.4648 344.864 71.3724 344.773 71.2573C344.683 71.1421 344.621 71.0074 344.592 70.8639C344.566 70.7352 344.566 70.6026 344.592 70.4739L343.89 70.7989C343.49 71.0093 343.024 71.0559 342.59 70.9289C342.468 70.8849 342.356 70.8159 342.262 70.7263C342.168 70.6368 342.094 70.5287 342.044 70.4089C341.927 70.1619 341.784 69.5249 342.681 68.8879C344.115 67.8536 345.628 66.9321 347.205 66.1319C346.975 66.1059 346.753 66.0281 346.557 65.9042C346.362 65.7804 346.196 65.6138 346.074 65.4169C346.003 65.2725 345.973 65.1115 345.986 64.9511C346 64.7907 346.057 64.6372 346.152 64.5069C346.29 64.3295 346.474 64.1943 346.685 64.1169C349.472 62.9311 352.448 62.2531 355.473 62.1149C357.48 62.0676 359.486 62.2773 361.44 62.7389L362.259 62.8819C365.163 63.3497 368.111 63.4935 371.047 63.3109C371.198 63.3108 371.343 63.3688 371.452 63.473C371.561 63.5771 371.625 63.7193 371.632 63.8699C371.632 64.022 371.575 64.1685 371.471 64.2796C371.367 64.3907 371.225 64.458 371.073 64.4679C368.054 64.645 365.025 64.4968 362.038 64.0259L361.206 63.8699C359.34 63.433 357.428 63.2278 355.512 63.2589C352.778 63.397 350.085 63.9856 347.543 65.0009C348.632 65.0245 349.719 64.8843 350.767 64.5849C350.912 64.5367 351.07 64.5479 351.206 64.6162C351.343 64.6844 351.447 64.8041 351.495 64.9489C351.543 65.0937 351.532 65.2518 351.464 65.3883C351.396 65.5248 351.276 65.6287 351.131 65.6769C348.424 66.6748 345.859 68.0208 343.5 69.6809L348.271 67.4969C348.765 67.2499 349.259 67.0159 349.766 66.8209C349.906 66.7606 350.064 66.7582 350.205 66.8143C350.346 66.8704 350.46 66.9803 350.52 67.1199C350.58 67.2596 350.583 67.4175 350.527 67.5589C350.471 67.7003 350.361 67.8136 350.221 67.8739L348.778 68.5369C347.808 69.0429 346.893 69.6485 346.048 70.3439C347.95 69.3921 349.764 68.2741 351.469 67.0029C351.529 66.9572 351.598 66.9239 351.672 66.905C351.745 66.8861 351.822 66.882 351.896 66.8929C351.971 66.9038 352.044 66.9295 352.109 66.9684C352.174 67.0074 352.23 67.0589 352.275 67.1199C352.321 67.1795 352.356 67.2478 352.376 67.3207C352.395 67.3936 352.401 67.4697 352.391 67.5446C352.381 67.6196 352.357 67.6918 352.319 67.7573C352.281 67.8227 352.231 67.8801 352.171 67.9259L349.025 70.3179H349.103L353.51 67.7179C353.638 67.6602 353.783 67.6505 353.917 67.6905C354.052 67.7305 354.167 67.8176 354.243 67.9359C354.319 68.0542 354.349 68.1957 354.329 68.3347C354.309 68.4737 354.24 68.6009 354.134 68.6929L351.378 70.6169C350.936 70.9289 350.845 71.1629 350.858 71.1889C351.17 71.25 351.494 71.1945 351.768 71.0329C354.075 70.0311 356.486 69.2899 358.957 68.8229L359.789 68.6019C360.406 68.4031 361.051 68.3022 361.7 68.3029C362.694 68.3808 363.675 68.5728 364.625 68.8749C365.041 68.9919 365.444 69.1089 365.834 69.1869L371.814 70.5649C371.887 70.582 371.957 70.6134 372.018 70.6572C372.079 70.7011 372.131 70.7566 372.171 70.8206C372.211 70.8846 372.238 70.9558 372.25 71.0301C372.263 71.1045 372.26 71.1805 372.243 71.2539C372.226 71.3273 372.195 71.3967 372.151 71.458C372.107 71.5192 372.051 71.5713 371.987 71.6111C371.923 71.651 371.852 71.6778 371.778 71.6901C371.703 71.7025 371.627 71.7 371.554 71.6829C369.565 71.2279 367.576 70.7599 365.574 70.3829C365.171 70.2919 364.755 70.1749 364.274 70.0579C363.429 69.787 362.557 69.6083 361.674 69.5249C361.133 69.5337 360.598 69.6303 360.088 69.8109C359.789 69.8889 359.49 69.9799 359.178 70.0319C356.791 70.4982 354.463 71.2262 352.236 72.2029C351.852 72.3595 351.441 72.439 351.027 72.4369Z" fill="#231F20"/>
<path d="M357.293 36.4919C356.305 37.4929 353.822 53.2489 352.912 60.6849L357.293 36.4919Z" fill="white"/>
<path d="M352.912 61.2699H352.834C352.684 61.2504 352.548 61.1726 352.456 61.0532C352.363 60.9339 352.322 60.7828 352.34 60.6329C352.899 56.0049 355.577 37.4279 356.89 36.0889C357.001 36.0025 357.14 35.9592 357.281 35.9668C357.421 35.9745 357.555 36.0328 357.656 36.1308C357.757 36.2288 357.819 36.3601 357.832 36.5005C357.844 36.6409 357.805 36.7809 357.722 36.8949C356.877 38.0519 354.485 52.5729 353.484 60.7759C353.462 60.9126 353.393 61.0372 353.288 61.1277C353.184 61.2181 353.05 61.2685 352.912 61.2699Z" fill="#231F20"/>
<path d="M319.905 75.5179L320.347 78.4689L361.141 84.4229L360.452 81.3809L319.905 75.5179Z" fill="white"/>
<path d="M361.141 85.0599H361.05L320.256 79.0929C320.122 79.0724 319.998 79.0096 319.902 78.9137C319.806 78.8179 319.744 78.6939 319.723 78.5599L319.281 75.6089C319.263 75.511 319.268 75.4101 319.298 75.3149C319.327 75.2198 319.379 75.1333 319.45 75.0629C319.522 74.995 319.609 74.9436 319.703 74.9122C319.797 74.8808 319.897 74.8701 319.996 74.8809L360.543 80.7569C360.668 80.775 360.785 80.8306 360.878 80.9165C360.971 81.0024 361.035 81.1145 361.063 81.2379L361.7 84.2929C361.727 84.3905 361.727 84.4933 361.702 84.5913C361.677 84.6893 361.627 84.7791 361.557 84.8519C361.45 84.9723 361.301 85.0468 361.141 85.0599ZM320.841 77.9099L360.27 83.6689L359.88 81.9399L320.594 76.2589L320.841 77.9099Z" fill="#231F20"/>
<path d="M319.905 75.5179C319.905 75.5179 329.187 67.5489 329.499 67.6269C329.811 67.7049 371.528 72.6969 371.528 72.6969L360.4 81.3809L319.905 75.5179Z" fill="white"/>
<path d="M360.4 82.0179L319.814 76.1029C319.693 76.0837 319.581 76.0307 319.489 75.9503C319.397 75.8698 319.329 75.765 319.294 75.6479C319.259 75.5325 319.258 75.4091 319.293 75.2934C319.328 75.1777 319.396 75.0749 319.489 74.9979C329.031 66.808 329.239 66.873 329.642 66.9639C330.266 67.0679 357.371 70.3179 371.606 72.0209C371.731 72.0373 371.849 72.0906 371.944 72.1739C372.039 72.2572 372.107 72.3669 372.139 72.4889C372.176 72.6087 372.175 72.7371 372.135 72.8561C372.096 72.9751 372.02 73.0786 371.918 73.1519L360.842 81.8359C360.784 81.8938 360.715 81.9397 360.639 81.9709C360.563 82.0022 360.482 82.0181 360.4 82.0179ZM321.4 75.0889L360.296 80.7179L369.968 73.1389C357.41 71.6309 332.45 68.641 329.668 68.277C328.732 68.862 324.507 72.4109 321.4 75.0889Z" fill="#231F20"/>
<path d="M361.141 84.4229L371.788 75.5179L371.528 72.6969L360.452 81.3809L361.141 84.4229Z" fill="white"/>
<path d="M361.141 85.0599C361.077 85.0722 361.011 85.0722 360.946 85.0599C360.842 85.029 360.748 84.9703 360.675 84.8902C360.602 84.81 360.552 84.7114 360.53 84.6049L359.841 81.5629C359.811 81.4468 359.816 81.3245 359.856 81.2112C359.895 81.0979 359.967 80.9987 360.062 80.9259L371.138 72.2029C371.228 72.1324 371.335 72.0874 371.449 72.0727C371.562 72.058 371.678 72.0741 371.783 72.1193C371.888 72.1645 371.979 72.2372 372.046 72.3297C372.113 72.4222 372.154 72.531 372.165 72.6449L372.412 75.4659C372.423 75.5681 372.409 75.6714 372.37 75.7666C372.331 75.8619 372.27 75.9461 372.191 76.0119L361.544 84.9299C361.428 85.0162 361.286 85.0618 361.141 85.0599ZM361.141 81.6279L361.518 83.2789L371.112 75.2449L370.995 73.9449L361.141 81.6279Z" fill="#231F20"/>
<path d="M319.905 75.5179L312.066 49.2449L355.07 56.5769L360.452 81.3809L319.905 75.5179Z" fill="white"/>
<path d="M360.4 82.0179L319.814 76.1029C319.692 76.0867 319.578 76.0349 319.485 75.954C319.393 75.873 319.326 75.7666 319.294 75.6479L311.494 49.3879C311.464 49.2846 311.461 49.1754 311.484 49.0704C311.508 48.9655 311.558 48.8683 311.629 48.7878C311.701 48.7073 311.791 48.6462 311.893 48.6102C311.994 48.5742 312.103 48.5645 312.209 48.5819L355.2 55.9529C355.323 55.9734 355.437 56.0301 355.527 56.1158C355.617 56.2015 355.68 56.3123 355.707 56.4339L361.063 81.3029C361.087 81.4017 361.085 81.5048 361.057 81.6026C361.03 81.7004 360.978 81.7897 360.907 81.8619C360.839 81.9236 360.758 81.9695 360.671 81.9965C360.583 82.0235 360.491 82.0308 360.4 82.0179ZM320.334 74.9459L359.594 80.6269L354.537 57.1229L312.937 50.0379L320.334 74.9459Z" fill="#231F20"/>
<path d="M380.394 74.9069H380.29L371.593 73.4119C371.448 73.3856 371.316 73.3107 371.22 73.1997C371.123 73.0887 371.066 72.9481 371.06 72.8009L370.787 62.4009C370.78 62.241 370.836 62.0846 370.943 61.9655C371.05 61.8464 371.199 61.774 371.359 61.7639L386.738 60.1779L379.9 36.6609C379.856 36.5007 379.875 36.3293 379.956 36.1836C380.036 36.0378 380.17 35.9292 380.329 35.8809C380.409 35.857 380.493 35.849 380.577 35.8576C380.66 35.8662 380.741 35.8912 380.814 35.931C380.888 35.9709 380.953 36.0248 381.006 36.0899C381.059 36.1549 381.098 36.2297 381.122 36.3099L388.155 60.5029C388.182 60.59 388.188 60.6818 388.175 60.7718C388.161 60.8617 388.128 60.9475 388.077 61.0229C388.025 61.0997 387.958 61.1648 387.88 61.2141C387.801 61.2634 387.714 61.2957 387.622 61.3089L372.022 62.9079L372.282 72.2289L380.472 73.6329C380.557 73.6406 380.64 73.665 380.716 73.7048C380.792 73.7446 380.86 73.7989 380.914 73.8647C380.969 73.9305 381.011 74.0064 381.036 74.0882C381.062 74.17 381.071 74.2561 381.063 74.3414C381.056 74.4268 381.031 74.5098 380.992 74.5857C380.952 74.6616 380.898 74.729 380.832 74.7839C380.766 74.8388 380.69 74.8803 380.608 74.9058C380.526 74.9314 380.44 74.9406 380.355 74.9329L380.394 74.9069Z" fill="#231F20"/>
<path d="M323.337 115.961C322.62 115.298 321.87 114.673 321.088 114.089C319.398 112.789 315.771 110.956 314.731 113.946C314.081 115.792 315.082 118.249 315.771 119.952C317.132 123.209 319.207 126.119 321.842 128.467C324.143 130.547 331.475 133.55 330.942 127.752C330.801 126.703 330.466 125.689 329.954 124.762C328.3 121.452 326.058 118.469 323.337 115.961Z" fill="white"/>
<path d="M328.238 131.704C325.742 131.502 323.372 130.519 321.465 128.896C318.763 126.49 316.636 123.51 315.238 120.173C314.536 118.431 313.47 115.818 314.185 113.751C314.313 113.318 314.544 112.922 314.859 112.598C315.174 112.274 315.563 112.032 315.992 111.892C318.111 111.255 320.906 113.192 321.439 113.634C322.234 114.227 322.997 114.861 323.727 115.532C326.508 118.085 328.799 121.125 330.487 124.502C331.029 125.494 331.382 126.579 331.527 127.7C331.735 129.962 330.799 130.937 329.967 131.34C329.428 131.597 328.835 131.722 328.238 131.704ZM316.902 112.919C316.709 112.917 316.516 112.943 316.33 112.997C316.072 113.082 315.839 113.232 315.655 113.432C315.471 113.633 315.341 113.876 315.277 114.141C314.705 115.779 315.667 118.158 316.304 119.731C317.633 122.909 319.659 125.748 322.232 128.038C323.87 129.533 327.718 131.184 329.46 130.313C330.201 129.936 330.5 129.117 330.383 127.804C330.241 126.828 329.924 125.885 329.447 125.022C327.834 121.767 325.63 118.84 322.947 116.39C322.245 115.74 321.504 115.09 320.75 114.557C319.651 113.654 318.315 113.086 316.902 112.919Z" fill="#231F20"/>
<path d="M348.102 119.198C347.601 118.847 346.996 118.678 346.386 118.717C346.004 118.808 345.653 119.001 345.372 119.276C344.848 119.816 344.452 120.466 344.214 121.18C343.975 121.893 343.9 122.651 343.994 123.397C344.181 124.886 344.644 126.328 345.359 127.648C347.348 131.782 350.039 135.786 354.03 138.048C354.746 138.473 355.528 138.776 356.344 138.945C363.442 140.245 360.504 133.199 358.762 130.014C356.293 125.481 352.599 121.733 348.102 119.198Z" fill="white"/>
<path d="M357.865 139.647C357.32 139.642 356.776 139.589 356.24 139.491C355.364 139.311 354.525 138.986 353.757 138.529C350.247 136.553 347.335 133.082 344.839 127.908C344.1 126.519 343.616 125.009 343.409 123.449C343.306 122.615 343.394 121.768 343.666 120.973C343.939 120.178 344.389 119.455 344.982 118.86C345.338 118.505 345.79 118.261 346.282 118.158C347.02 118.087 347.76 118.276 348.375 118.691C352.958 121.278 356.731 125.091 359.269 129.702C360.569 132.016 362.428 136.202 360.868 138.399C360.509 138.838 360.047 139.182 359.523 139.4C358.999 139.617 358.43 139.702 357.865 139.647ZM346.633 119.276H346.477C346.205 119.346 345.958 119.49 345.762 119.692C345.3 120.168 344.952 120.744 344.745 121.374C344.538 122.005 344.477 122.674 344.566 123.332C344.742 124.753 345.183 126.129 345.866 127.388C348.245 132.354 351.066 135.656 354.29 137.502C354.948 137.9 355.669 138.181 356.422 138.334C358.203 138.659 359.373 138.438 359.893 137.71C360.907 136.293 359.698 132.926 358.229 130.248C355.811 125.831 352.21 122.175 347.829 119.692C347.469 119.46 347.059 119.317 346.633 119.276Z" fill="#231F20"/>
<path d="M345.255 96.9029C345.098 96.9035 344.947 96.8449 344.831 96.7389C344.716 96.6329 344.644 96.4872 344.631 96.3309C344.631 96.0449 343.916 89.0639 345.112 85.0859C345.135 85.0065 345.173 84.9325 345.225 84.8679C345.277 84.8034 345.341 84.7497 345.413 84.7099C345.486 84.67 345.565 84.6449 345.647 84.6358C345.729 84.6267 345.813 84.6339 345.892 84.6569C345.971 84.68 346.045 84.7184 346.11 84.7701C346.174 84.8218 346.228 84.8856 346.268 84.9581C346.308 85.0305 346.333 85.1101 346.342 85.1922C346.351 85.2744 346.344 85.3575 346.321 85.4369C345.203 89.1809 345.866 96.1489 345.879 96.2139C345.893 96.3809 345.842 96.5469 345.734 96.6759C345.627 96.8049 345.474 96.8864 345.307 96.9029H345.255Z" fill="white"/>
<path d="M269.114 47.9059H10.856C5.43534 47.9059 1.04102 52.3002 1.04102 57.7209V234.924C1.04102 240.345 5.43534 244.739 10.856 244.739H269.114C274.535 244.739 278.929 240.345 278.929 234.924V57.7209C278.929 52.3002 274.535 47.9059 269.114 47.9059Z" fill="white"/>
<path d="M269.114 245.376H10.8561C8.10307 245.359 5.46768 244.258 3.52098 242.311C1.57429 240.364 0.473102 237.729 0.456055 234.976V57.7209C0.456055 54.9627 1.55177 52.3174 3.50215 50.367C5.45252 48.4166 8.0978 47.3209 10.8561 47.3209H269.114C271.872 47.3209 274.518 48.4166 276.468 50.367C278.418 52.3174 279.514 54.9627 279.514 57.7209V234.937C279.519 236.306 279.254 237.663 278.734 238.929C278.213 240.195 277.448 241.346 276.482 242.316C275.516 243.286 274.367 244.055 273.103 244.581C271.839 245.106 270.483 245.376 269.114 245.376ZM10.8561 48.5429C8.4207 48.5429 6.0849 49.5095 4.36163 51.2303C2.63836 52.9511 1.6685 55.2856 1.66506 57.7209V234.937C1.6685 237.372 2.63836 239.707 4.36163 241.428C6.0849 243.148 8.4207 244.115 10.8561 244.115H269.114C271.547 244.111 273.88 243.143 275.6 241.423C277.321 239.702 278.289 237.37 278.292 234.937V57.7209C278.289 55.2878 277.321 52.9554 275.6 51.2349C273.88 49.5144 271.547 48.5464 269.114 48.5429H10.8561Z" fill="#231F20"/>
<path d="M268.646 73.3599H11.311V234.391H268.646V73.3599Z" fill="#231F20"/>
<path d="M268.646 235.041H11.311C11.1386 235.041 10.9733 234.972 10.8514 234.851C10.7295 234.729 10.661 234.563 10.661 234.391V73.3599C10.661 73.1875 10.7295 73.0222 10.8514 72.9003C10.9733 72.7784 11.1386 72.7099 11.311 72.7099H268.711C268.883 72.7099 269.049 72.7784 269.171 72.9003C269.293 73.0222 269.361 73.1875 269.361 73.3599V234.391C269.361 234.482 269.343 234.572 269.306 234.656C269.269 234.739 269.216 234.814 269.148 234.875C269.081 234.936 269.001 234.983 268.915 235.011C268.828 235.04 268.737 235.05 268.646 235.041ZM12 233.741H268.1V74.0099H12V233.741Z" fill="#231F20"/>
<path d="M268.646 58.2539H11.311V73.3599H268.646V58.2539Z" fill="#845ADF"/>
<path d="M268.646 74.0099H11.311C11.1386 74.0099 10.9733 73.9414 10.8514 73.8195C10.7295 73.6976 10.661 73.5323 10.661 73.3599V58.2539C10.661 58.0815 10.7295 57.9162 10.8514 57.7943C10.9733 57.6724 11.1386 57.6039 11.311 57.6039H268.711C268.883 57.6039 269.049 57.6724 269.171 57.7943C269.293 57.9162 269.361 58.0815 269.361 58.2539V73.3599C269.361 73.451 269.343 73.5412 269.306 73.6247C269.269 73.7081 269.216 73.7829 269.148 73.8441C269.081 73.9054 269.001 73.9519 268.915 73.9804C268.828 74.009 268.737 74.019 268.646 74.0099ZM12 72.7099H268.1V58.9039H12V72.7099Z" fill="#845ADF"/>
<path d="M62.908 89.3889H40.808C40.725 89.3907 40.6424 89.3758 40.5652 89.3452C40.488 89.3146 40.4177 89.2689 40.3584 89.2108C40.299 89.1527 40.2519 89.0833 40.2197 89.0068C40.1876 88.9302 40.171 88.848 40.171 88.7649C40.171 88.596 40.2381 88.434 40.3576 88.3145C40.4771 88.195 40.6391 88.1279 40.808 88.1279H62.908C62.9911 88.1279 63.0733 88.1445 63.1499 88.1766C63.2264 88.2088 63.2958 88.2559 63.3539 88.3153C63.412 88.3746 63.4577 88.4449 63.4883 88.5221C63.5189 88.5994 63.5337 88.6819 63.532 88.7649C63.5338 88.8474 63.5189 88.9293 63.4881 89.0058C63.4574 89.0823 63.4115 89.1518 63.3532 89.2101C63.2949 89.2684 63.2254 89.3143 63.1489 89.345C63.0724 89.3758 62.9904 89.3907 62.908 89.3889Z" fill="white"/>
<path d="M112.763 89.3889H68.563C68.4806 89.3907 68.3986 89.3758 68.3221 89.345C68.2456 89.3143 68.1761 89.2684 68.1178 89.2101C68.0595 89.1518 68.0136 89.0823 67.9829 89.0058C67.9521 88.9293 67.9372 88.8474 67.939 88.7649C67.9373 88.6819 67.9521 88.5994 67.9827 88.5221C68.0133 88.4449 68.059 88.3746 68.1171 88.3153C68.1752 88.2559 68.2446 88.2088 68.3212 88.1766C68.3977 88.1445 68.4799 88.1279 68.563 88.1279H112.763C112.932 88.1279 113.094 88.195 113.213 88.3145C113.333 88.434 113.4 88.596 113.4 88.7649C113.4 88.848 113.383 88.9302 113.351 89.0068C113.319 89.0833 113.272 89.1527 113.213 89.2108C113.153 89.2689 113.083 89.3146 113.006 89.3452C112.929 89.3758 112.846 89.3907 112.763 89.3889Z" fill="#845ADF"/>
<path d="M128.038 98.6449H83.838C83.6656 98.6449 83.5003 98.5764 83.3784 98.4545C83.2565 98.3326 83.188 98.1673 83.188 97.9949C83.188 97.8225 83.2565 97.6572 83.3784 97.5353C83.5003 97.4134 83.6656 97.3449 83.838 97.3449H128.038C128.21 97.3449 128.376 97.4134 128.498 97.5353C128.62 97.6572 128.688 97.8225 128.688 97.9949C128.688 98.1673 128.62 98.3326 128.498 98.4545C128.376 98.5764 128.21 98.6449 128.038 98.6449Z" fill="#845ADF"/>
<path d="M68.095 98.6449H45.995C45.8226 98.6449 45.6572 98.5764 45.5354 98.4545C45.4135 98.3326 45.345 98.1673 45.345 97.9949C45.345 97.8225 45.4135 97.6572 45.5354 97.5353C45.6572 97.4134 45.8226 97.3449 45.995 97.3449H68.095C68.2674 97.3449 68.4327 97.4134 68.5546 97.5353C68.6765 97.6572 68.745 97.8225 68.745 97.9949C68.745 98.1673 68.6765 98.3326 68.5546 98.4545C68.4327 98.5764 68.2674 98.6449 68.095 98.6449Z" fill="white"/>
<path d="M73.295 107.888H51.195C51.026 107.888 50.864 107.821 50.7446 107.701C50.6251 107.582 50.558 107.42 50.558 107.251C50.558 107.168 50.5745 107.086 50.6067 107.009C50.6389 106.933 50.686 106.863 50.7453 106.805C50.8046 106.747 50.875 106.701 50.9522 106.671C51.0294 106.64 51.1119 106.625 51.195 106.627H73.295C73.3774 106.625 73.4593 106.64 73.5359 106.671C73.6124 106.702 73.6819 106.747 73.7402 106.806C73.7985 106.864 73.8444 106.934 73.8751 107.01C73.9058 107.087 73.9208 107.168 73.919 107.251C73.9207 107.334 73.9059 107.416 73.8753 107.494C73.8447 107.571 73.799 107.641 73.7409 107.701C73.6828 107.76 73.6134 107.807 73.5368 107.839C73.4603 107.871 73.378 107.888 73.295 107.888Z" fill="white"/>
<path d="M135.929 107.888H80.666C80.583 107.888 80.5007 107.871 80.4242 107.839C80.3476 107.807 80.2782 107.76 80.2201 107.701C80.162 107.641 80.1163 107.571 80.0857 107.494C80.0551 107.416 80.0403 107.334 80.042 107.251C80.0402 107.168 80.0552 107.087 80.0859 107.01C80.1166 106.934 80.1625 106.864 80.2208 106.806C80.2791 106.747 80.3486 106.702 80.4251 106.671C80.5017 106.64 80.5836 106.625 80.666 106.627H135.929C136.012 106.625 136.095 106.64 136.172 106.671C136.249 106.701 136.319 106.747 136.379 106.805C136.438 106.863 136.485 106.933 136.517 107.009C136.549 107.086 136.566 107.168 136.566 107.251C136.566 107.42 136.499 107.582 136.379 107.701C136.26 107.821 136.098 107.888 135.929 107.888Z" fill="#845ADF"/>
<path d="M78.4821 117.131H56.3821C56.2154 117.128 56.0567 117.059 55.94 116.94C55.8233 116.821 55.758 116.661 55.7581 116.494C55.7581 116.328 55.8238 116.17 55.9408 116.053C56.0578 115.936 56.2166 115.87 56.3821 115.87H78.4821C78.5651 115.868 78.6476 115.883 78.7248 115.914C78.8021 115.944 78.8724 115.99 78.9317 116.048C78.991 116.106 79.0382 116.176 79.0703 116.252C79.1025 116.329 79.1191 116.411 79.1191 116.494C79.1191 116.663 79.0519 116.825 78.9325 116.944C78.813 117.064 78.651 117.131 78.4821 117.131Z" fill="white"/>
<path d="M147.356 117.131H81.654C81.485 117.131 81.323 117.064 81.2035 116.944C81.0841 116.825 81.017 116.663 81.017 116.494C81.0169 116.411 81.0335 116.329 81.0657 116.252C81.0979 116.176 81.145 116.106 81.2043 116.048C81.2636 115.99 81.334 115.944 81.4112 115.914C81.4884 115.883 81.5709 115.868 81.654 115.87H147.356C147.439 115.868 147.522 115.883 147.599 115.914C147.676 115.944 147.746 115.99 147.806 116.048C147.865 116.106 147.912 116.176 147.944 116.252C147.976 116.329 147.993 116.411 147.993 116.494C147.993 116.663 147.926 116.825 147.806 116.944C147.687 117.064 147.525 117.131 147.356 117.131Z" fill="#845ADF"/>
<path d="M72.619 126.374H50.519C50.3466 126.374 50.1813 126.305 50.0594 126.184C49.9375 126.062 49.869 125.896 49.869 125.724C49.869 125.552 49.9375 125.386 50.0594 125.264C50.1813 125.142 50.3466 125.074 50.519 125.074H72.619C72.7914 125.074 72.9567 125.142 73.0786 125.264C73.2005 125.386 73.269 125.552 73.269 125.724C73.269 125.896 73.2005 126.062 73.0786 126.184C72.9567 126.305 72.7914 126.374 72.619 126.374Z" fill="white"/>
<path d="M112.763 126.374H77.13C76.9576 126.374 76.7923 126.305 76.6704 126.184C76.5485 126.062 76.48 125.896 76.48 125.724C76.48 125.552 76.5485 125.386 76.6704 125.264C76.7923 125.142 76.9576 125.074 77.13 125.074H112.763C112.935 125.074 113.101 125.142 113.223 125.264C113.345 125.386 113.413 125.552 113.413 125.724C113.413 125.896 113.345 126.062 113.223 126.184C113.101 126.305 112.935 126.374 112.763 126.374Z" fill="#845ADF"/>
<path d="M162.007 126.374H126.4C126.228 126.374 126.062 126.305 125.94 126.184C125.818 126.062 125.75 125.896 125.75 125.724C125.75 125.552 125.818 125.386 125.94 125.264C126.062 125.142 126.228 125.074 126.4 125.074H162.033C162.205 125.074 162.371 125.142 162.493 125.264C162.615 125.386 162.683 125.552 162.683 125.724C162.683 125.896 162.615 126.062 162.493 126.184C162.371 126.305 162.205 126.374 162.033 126.374H162.007Z" fill="#845ADF"/>
<path d="M72.619 135.617H50.519C50.3466 135.617 50.1813 135.548 50.0594 135.427C49.9375 135.305 49.869 135.139 49.869 134.967C49.869 134.795 49.9375 134.629 50.0594 134.507C50.1813 134.385 50.3466 134.317 50.519 134.317H72.619C72.7914 134.317 72.9567 134.385 73.0786 134.507C73.2005 134.629 73.269 134.795 73.269 134.967C73.269 135.139 73.2005 135.305 73.0786 135.427C72.9567 135.548 72.7914 135.617 72.619 135.617Z" fill="white"/>
<path d="M112.763 135.617H81.654C81.4816 135.617 81.3163 135.548 81.1944 135.427C81.0725 135.305 81.004 135.139 81.004 134.967C81.004 134.795 81.0725 134.629 81.1944 134.507C81.3163 134.385 81.4816 134.317 81.654 134.317H112.763C112.935 134.317 113.101 134.385 113.223 134.507C113.345 134.629 113.413 134.795 113.413 134.967C113.413 135.139 113.345 135.305 113.223 135.427C113.101 135.548 112.935 135.617 112.763 135.617Z" fill="#845ADF"/>
<path d="M130.729 135.617H118.015C117.843 135.617 117.677 135.548 117.555 135.427C117.433 135.305 117.365 135.139 117.365 134.967C117.365 134.795 117.433 134.629 117.555 134.507C117.677 134.385 117.843 134.317 118.015 134.317H130.729C130.901 134.317 131.067 134.385 131.189 134.507C131.311 134.629 131.379 134.795 131.379 134.967C131.379 135.139 131.311 135.305 131.189 135.427C131.067 135.548 130.901 135.617 130.729 135.617Z" fill="#845ADF"/>
<path d="M72.619 144.86H50.519C50.4359 144.862 50.3534 144.847 50.2762 144.816C50.199 144.786 50.1286 144.74 50.0693 144.682C50.01 144.624 49.9628 144.554 49.9307 144.478C49.8985 144.401 49.8819 144.319 49.882 144.236C49.882 144.067 49.9491 143.905 50.0685 143.785C50.188 143.666 50.35 143.599 50.519 143.599H72.619C72.702 143.599 72.7842 143.615 72.8608 143.648C72.9374 143.68 73.0067 143.727 73.0649 143.786C73.123 143.846 73.1687 143.916 73.1992 143.993C73.2298 144.07 73.2447 144.153 73.243 144.236C73.2447 144.318 73.2298 144.4 73.1991 144.477C73.1683 144.553 73.1224 144.623 73.0641 144.681C73.0058 144.739 72.9363 144.785 72.8598 144.816C72.7833 144.847 72.7014 144.862 72.619 144.86Z" fill="white"/>
<path d="M123.93 144.86H78.43C78.2645 144.86 78.1058 144.794 77.9888 144.677C77.8718 144.56 77.806 144.401 77.806 144.236C77.806 144.069 77.8713 143.909 77.988 143.79C78.1046 143.671 78.2633 143.602 78.43 143.599H123.93C124.099 143.599 124.261 143.666 124.38 143.785C124.5 143.905 124.567 144.067 124.567 144.236C124.567 144.319 124.551 144.401 124.518 144.478C124.486 144.554 124.439 144.624 124.38 144.682C124.32 144.74 124.25 144.786 124.173 144.816C124.096 144.847 124.013 144.862 123.93 144.86Z" fill="#845ADF"/>
<path d="M151.412 144.86H129.312C129.229 144.862 129.146 144.847 129.069 144.816C128.992 144.786 128.922 144.74 128.862 144.682C128.803 144.624 128.756 144.554 128.724 144.478C128.692 144.401 128.675 144.319 128.675 144.236C128.675 144.067 128.742 143.905 128.862 143.785C128.981 143.666 129.143 143.599 129.312 143.599H151.412C151.579 143.602 151.737 143.671 151.854 143.79C151.971 143.909 152.036 144.069 152.036 144.236C152.036 144.401 151.97 144.56 151.853 144.677C151.736 144.794 151.578 144.86 151.412 144.86Z" fill="#845ADF"/>
<path d="M57.032 154.103H45.332C45.1596 154.103 44.9943 154.034 44.8724 153.913C44.7505 153.791 44.682 153.625 44.682 153.453C44.682 153.281 44.7505 153.115 44.8724 152.993C44.9943 152.871 45.1596 152.803 45.332 152.803H57.032C57.2044 152.803 57.3697 152.871 57.4916 152.993C57.6135 153.115 57.682 153.281 57.682 153.453C57.682 153.625 57.6135 153.791 57.4916 153.913C57.3697 154.034 57.2044 154.103 57.032 154.103Z" fill="white"/>
<path d="M118.015 154.103H66.743C66.5706 154.103 66.4053 154.034 66.2834 153.913C66.1615 153.791 66.093 153.625 66.093 153.453C66.093 153.281 66.1615 153.115 66.2834 152.993C66.4053 152.871 66.5706 152.803 66.743 152.803H118.015C118.187 152.803 118.353 152.871 118.475 152.993C118.597 153.115 118.665 153.281 118.665 153.453C118.665 153.625 118.597 153.791 118.475 153.913C118.353 154.034 118.187 154.103 118.015 154.103Z" fill="#845ADF"/>
<path d="M67.419 163.359H45.3189C45.1466 163.359 44.9812 163.29 44.8593 163.169C44.7374 163.047 44.6689 162.881 44.6689 162.709C44.6689 162.537 44.7374 162.371 44.8593 162.249C44.9812 162.127 45.1466 162.059 45.3189 162.059H67.419C67.5913 162.059 67.7567 162.127 67.8786 162.249C68.0005 162.371 68.069 162.537 68.069 162.709C68.069 162.881 68.0005 163.047 67.8786 163.169C67.7567 163.29 67.5913 163.359 67.419 163.359Z" fill="white"/>
<path d="M92.717 172.602H48.517C48.4339 172.602 48.3517 172.585 48.2751 172.553C48.1986 172.521 48.1292 172.474 48.0711 172.415C48.0129 172.355 47.9673 172.285 47.9367 172.208C47.9061 172.13 47.8912 172.048 47.893 171.965C47.8912 171.883 47.9061 171.801 47.9369 171.724C47.9676 171.648 48.0135 171.578 48.0718 171.52C48.1301 171.461 48.1996 171.416 48.2761 171.385C48.3526 171.354 48.4345 171.339 48.517 171.341H92.717C92.8 171.339 92.8825 171.354 92.9598 171.385C93.037 171.415 93.1073 171.461 93.1666 171.519C93.226 171.577 93.2731 171.647 93.3053 171.723C93.3374 171.8 93.354 171.882 93.354 171.965C93.354 172.134 93.2869 172.296 93.1674 172.415C93.0479 172.535 92.8859 172.602 92.717 172.602Z" fill="white"/>
<path d="M130.729 172.602H100.036C99.953 172.602 99.8707 172.585 99.7942 172.553C99.7176 172.521 99.6482 172.474 99.5901 172.415C99.532 172.355 99.4863 172.285 99.4557 172.208C99.4251 172.13 99.4103 172.048 99.412 171.965C99.4102 171.883 99.4252 171.801 99.4559 171.724C99.4866 171.648 99.5325 171.578 99.5908 171.52C99.6491 171.461 99.7186 171.416 99.7951 171.385C99.8716 171.354 99.9536 171.339 100.036 171.341H130.729C130.812 171.339 130.895 171.354 130.972 171.385C131.049 171.415 131.119 171.461 131.179 171.519C131.238 171.577 131.285 171.647 131.317 171.723C131.349 171.8 131.366 171.882 131.366 171.965C131.366 172.134 131.299 172.296 131.179 172.415C131.06 172.535 130.898 172.602 130.729 172.602Z" fill="#845ADF"/>
<path d="M173.122 172.602H135.123C135.04 172.602 134.958 172.585 134.881 172.553C134.805 172.521 134.735 172.474 134.677 172.415C134.619 172.355 134.573 172.285 134.543 172.208C134.512 172.13 134.497 172.048 134.499 171.965C134.497 171.883 134.512 171.801 134.543 171.724C134.574 171.648 134.619 171.578 134.678 171.52C134.736 171.461 134.806 171.416 134.882 171.385C134.959 171.354 135.041 171.339 135.123 171.341H173.122C173.287 171.341 173.446 171.407 173.563 171.524C173.68 171.641 173.746 171.799 173.746 171.965C173.746 172.132 173.681 172.292 173.564 172.411C173.447 172.53 173.289 172.599 173.122 172.602Z" fill="#845ADF"/>
<path d="M114.843 181.845H50.493C50.324 181.845 50.162 181.778 50.0425 181.658C49.9231 181.539 49.856 181.377 49.856 181.208C49.8559 181.125 49.8725 181.043 49.9047 180.966C49.9368 180.89 49.984 180.82 50.0433 180.762C50.1026 180.704 50.173 180.658 50.2502 180.628C50.3274 180.597 50.4099 180.582 50.493 180.584H114.843C114.926 180.582 115.009 180.597 115.086 180.628C115.163 180.658 115.233 180.704 115.293 180.762C115.352 180.82 115.399 180.89 115.431 180.966C115.463 181.043 115.48 181.125 115.48 181.208C115.48 181.377 115.413 181.539 115.293 181.658C115.174 181.778 115.012 181.845 114.843 181.845Z" fill="white"/>
<path d="M148.188 181.845H119.237C119.068 181.845 118.906 181.778 118.787 181.658C118.667 181.539 118.6 181.377 118.6 181.208C118.6 181.125 118.617 181.043 118.649 180.966C118.681 180.89 118.728 180.82 118.787 180.762C118.847 180.704 118.917 180.658 118.994 180.628C119.071 180.597 119.154 180.582 119.237 180.584H148.188C148.27 180.582 148.352 180.597 148.429 180.628C148.505 180.659 148.575 180.704 148.633 180.763C148.691 180.821 148.737 180.891 148.768 180.967C148.799 181.044 148.814 181.125 148.812 181.208C148.814 181.291 148.799 181.373 148.768 181.451C148.738 181.528 148.692 181.598 148.634 181.658C148.576 181.717 148.506 181.764 148.43 181.796C148.353 181.828 148.271 181.845 148.188 181.845Z" fill="#845ADF"/>
<path d="M239.175 181.845H153.089C152.922 181.842 152.764 181.773 152.647 181.654C152.53 181.535 152.465 181.375 152.465 181.208C152.465 181.042 152.531 180.884 152.648 180.767C152.765 180.65 152.923 180.584 153.089 180.584H239.175C239.258 180.582 239.341 180.597 239.418 180.628C239.495 180.658 239.565 180.704 239.625 180.762C239.684 180.82 239.731 180.89 239.763 180.966C239.795 181.043 239.812 181.125 239.812 181.208C239.812 181.377 239.745 181.539 239.625 181.658C239.506 181.778 239.344 181.845 239.175 181.845Z" fill="#845ADF"/>
<path d="M80.666 191.088H50.233C50.0606 191.088 49.8953 191.019 49.7734 190.898C49.6515 190.776 49.583 190.61 49.583 190.438C49.583 190.266 49.6515 190.1 49.7734 189.978C49.8953 189.856 50.0606 189.788 50.233 189.788H80.666C80.8384 189.788 81.0037 189.856 81.1256 189.978C81.2475 190.1 81.316 190.266 81.316 190.438C81.316 190.61 81.2475 190.776 81.1256 190.898C81.0037 191.019 80.8384 191.088 80.666 191.088Z" fill="white"/>
<path d="M109.136 191.088H86.724C86.5516 191.088 86.3863 191.019 86.2644 190.898C86.1425 190.776 86.074 190.61 86.074 190.438C86.074 190.266 86.1425 190.1 86.2644 189.978C86.3863 189.856 86.5516 189.788 86.724 189.788H109.136C109.308 189.788 109.474 189.856 109.596 189.978C109.717 190.1 109.786 190.266 109.786 190.438C109.786 190.61 109.717 190.776 109.596 190.898C109.474 191.019 109.308 191.088 109.136 191.088Z" fill="#845ADF"/>
<path d="M137.58 191.088H115.168C114.996 191.088 114.83 191.019 114.708 190.898C114.586 190.776 114.518 190.61 114.518 190.438C114.518 190.266 114.586 190.1 114.708 189.978C114.83 189.856 114.996 189.788 115.168 189.788H137.58C137.752 189.788 137.918 189.856 138.04 189.978C138.161 190.1 138.23 190.266 138.23 190.438C138.23 190.61 138.161 190.776 138.04 190.898C137.918 191.019 137.752 191.088 137.58 191.088Z" fill="#845ADF"/>
<path d="M104.04 200.331H50.233C50.1499 200.333 50.0674 200.318 49.9902 200.287C49.9129 200.257 49.8426 200.211 49.7833 200.153C49.724 200.095 49.6768 200.025 49.6447 199.949C49.6125 199.872 49.5959 199.79 49.5959 199.707C49.5959 199.538 49.6631 199.376 49.7825 199.257C49.902 199.137 50.064 199.07 50.233 199.07H104.04C104.209 199.07 104.371 199.137 104.49 199.257C104.61 199.376 104.677 199.538 104.677 199.707C104.677 199.79 104.66 199.872 104.628 199.949C104.596 200.025 104.549 200.095 104.49 200.153C104.43 200.211 104.36 200.257 104.283 200.287C104.206 200.318 104.123 200.333 104.04 200.331Z" fill="white"/>
<path d="M137.58 200.331H110.67C110.588 200.333 110.506 200.318 110.429 200.287C110.353 200.256 110.283 200.21 110.225 200.152C110.167 200.094 110.121 200.024 110.09 199.948C110.059 199.871 110.044 199.789 110.046 199.707C110.044 199.624 110.059 199.541 110.09 199.464C110.12 199.387 110.166 199.317 110.224 199.257C110.282 199.198 110.352 199.151 110.428 199.119C110.505 199.086 110.587 199.07 110.67 199.07H137.58C137.663 199.07 137.745 199.086 137.822 199.119C137.898 199.151 137.968 199.198 138.026 199.257C138.084 199.317 138.13 199.387 138.16 199.464C138.191 199.541 138.206 199.624 138.204 199.707C138.206 199.789 138.191 199.871 138.16 199.948C138.129 200.024 138.084 200.094 138.025 200.152C137.967 200.21 137.897 200.256 137.821 200.287C137.744 200.318 137.662 200.333 137.58 200.331Z" fill="#845ADF"/>
<path d="M185.16 200.331H144.184C144.102 200.333 144.02 200.318 143.943 200.287C143.867 200.256 143.797 200.21 143.739 200.152C143.68 200.094 143.635 200.024 143.604 199.948C143.573 199.871 143.558 199.789 143.56 199.707C143.558 199.624 143.573 199.541 143.604 199.464C143.634 199.387 143.68 199.317 143.738 199.257C143.796 199.198 143.866 199.151 143.942 199.119C144.019 199.086 144.101 199.07 144.184 199.07H185.16C185.244 199.07 185.326 199.086 185.404 199.118C185.481 199.15 185.551 199.197 185.61 199.257C185.67 199.316 185.716 199.386 185.748 199.463C185.78 199.54 185.797 199.623 185.797 199.707C185.797 199.79 185.78 199.872 185.748 199.949C185.716 200.025 185.669 200.095 185.61 200.153C185.55 200.211 185.48 200.257 185.403 200.287C185.326 200.318 185.243 200.333 185.16 200.331Z" fill="#845ADF"/>
<path d="M230.4 200.331H189.476C189.393 200.333 189.31 200.318 189.233 200.287C189.156 200.257 189.086 200.211 189.026 200.153C188.967 200.095 188.92 200.025 188.888 199.949C188.856 199.872 188.839 199.79 188.839 199.707C188.839 199.538 188.906 199.376 189.026 199.257C189.145 199.137 189.307 199.07 189.476 199.07H230.4C230.569 199.07 230.731 199.137 230.85 199.257C230.97 199.376 231.037 199.538 231.037 199.707C231.037 199.79 231.02 199.872 230.988 199.949C230.956 200.025 230.909 200.095 230.85 200.153C230.79 200.211 230.72 200.257 230.643 200.287C230.566 200.318 230.483 200.333 230.4 200.331Z" fill="#845ADF"/>
<path d="M95.941 209.574H63.844C63.761 209.576 63.6785 209.561 63.6012 209.53C63.524 209.5 63.4537 209.454 63.3944 209.396C63.335 209.338 63.2879 209.268 63.2557 209.192C63.2236 209.115 63.207 209.033 63.207 208.95C63.207 208.866 63.2235 208.783 63.2555 208.706C63.2875 208.629 63.3345 208.559 63.3936 208.5C63.4528 208.44 63.523 208.393 63.6003 208.361C63.6775 208.329 63.7604 208.313 63.844 208.313H95.941C96.0241 208.313 96.1063 208.329 96.1829 208.362C96.2594 208.394 96.3288 208.441 96.3869 208.5C96.445 208.56 96.4907 208.63 96.5213 208.707C96.5519 208.784 96.5668 208.867 96.565 208.95C96.5668 209.032 96.5519 209.114 96.5211 209.191C96.4904 209.267 96.4445 209.337 96.3862 209.395C96.3279 209.453 96.2584 209.499 96.1819 209.53C96.1054 209.561 96.0235 209.576 95.941 209.574Z" fill="white"/>
<path d="M134.057 209.574H101.96C101.878 209.576 101.796 209.561 101.719 209.53C101.643 209.499 101.573 209.453 101.515 209.395C101.456 209.337 101.411 209.267 101.38 209.191C101.349 209.114 101.334 209.032 101.336 208.95C101.334 208.867 101.349 208.784 101.38 208.707C101.41 208.63 101.456 208.56 101.514 208.5C101.572 208.441 101.642 208.394 101.718 208.362C101.795 208.329 101.877 208.313 101.96 208.313H134.057C134.141 208.313 134.223 208.329 134.301 208.361C134.378 208.393 134.448 208.44 134.507 208.5C134.567 208.559 134.613 208.629 134.645 208.706C134.677 208.783 134.694 208.866 134.694 208.95C134.694 209.033 134.677 209.115 134.645 209.192C134.613 209.268 134.566 209.338 134.507 209.396C134.447 209.454 134.377 209.5 134.3 209.53C134.223 209.561 134.14 209.576 134.057 209.574Z" fill="#845ADF"/>
<path d="M172.446 209.574H140.349C140.266 209.576 140.183 209.561 140.106 209.53C140.029 209.5 139.959 209.454 139.899 209.396C139.84 209.338 139.793 209.268 139.761 209.192C139.729 209.115 139.712 209.033 139.712 208.95C139.712 208.866 139.729 208.783 139.761 208.706C139.793 208.629 139.839 208.559 139.899 208.5C139.958 208.44 140.028 208.393 140.105 208.361C140.183 208.329 140.265 208.313 140.349 208.313H172.446C172.529 208.313 172.611 208.329 172.688 208.362C172.764 208.394 172.834 208.441 172.892 208.5C172.95 208.56 172.996 208.63 173.026 208.707C173.057 208.784 173.072 208.867 173.07 208.95C173.072 209.032 173.057 209.114 173.026 209.191C172.995 209.267 172.95 209.337 172.891 209.395C172.833 209.453 172.763 209.499 172.687 209.53C172.61 209.561 172.528 209.576 172.446 209.574Z" fill="#845ADF"/>
<path d="M212.2 210.614H180.09C179.918 210.614 179.752 210.545 179.63 210.424C179.508 210.302 179.44 210.136 179.44 209.964C179.44 209.792 179.508 209.626 179.63 209.504C179.752 209.382 179.918 209.314 180.09 209.314H212.2C212.372 209.314 212.538 209.382 212.66 209.504C212.781 209.626 212.85 209.792 212.85 209.964C212.85 210.136 212.781 210.302 212.66 210.424C212.538 210.545 212.372 210.614 212.2 210.614Z" fill="#845ADF"/>
<path d="M90.741 218.817H68.641C68.5586 218.819 68.4766 218.804 68.4001 218.773C68.3236 218.742 68.2541 218.696 68.1958 218.638C68.1375 218.58 68.0916 218.51 68.0609 218.434C68.0301 218.357 68.0152 218.275 68.017 218.193C68.0153 218.11 68.0301 218.027 68.0607 217.95C68.0913 217.873 68.137 217.803 68.1951 217.743C68.2532 217.684 68.3226 217.637 68.3992 217.605C68.4757 217.572 68.5579 217.556 68.641 217.556H90.741C90.9099 217.556 91.072 217.623 91.1914 217.743C91.3109 217.862 91.378 218.024 91.378 218.193C91.378 218.276 91.3615 218.358 91.3293 218.435C91.2971 218.511 91.25 218.581 91.1907 218.639C91.1313 218.697 91.061 218.743 90.9838 218.773C90.9066 218.804 90.824 218.819 90.741 218.817Z" fill="white"/>
<path d="M118.067 218.817H95.967C95.8839 218.819 95.8014 218.804 95.7242 218.773C95.647 218.743 95.5766 218.697 95.5173 218.639C95.458 218.581 95.4108 218.511 95.3787 218.435C95.3465 218.358 95.3299 218.276 95.33 218.193C95.33 218.024 95.3971 217.862 95.5165 217.743C95.636 217.623 95.798 217.556 95.967 217.556H118.067C118.15 217.556 118.232 217.572 118.309 217.605C118.385 217.637 118.455 217.684 118.513 217.743C118.571 217.803 118.617 217.873 118.647 217.95C118.678 218.027 118.693 218.11 118.691 218.193C118.693 218.275 118.678 218.357 118.647 218.434C118.616 218.51 118.57 218.58 118.512 218.638C118.454 218.696 118.384 218.742 118.308 218.773C118.231 218.804 118.149 218.819 118.067 218.817Z" fill="#845ADF"/>
<path d="M169.157 219.753L123.475 218.817C123.392 218.817 123.31 218.8 123.233 218.768C123.157 218.736 123.087 218.689 123.029 218.63C122.971 218.57 122.925 218.5 122.895 218.423C122.864 218.345 122.849 218.263 122.851 218.18C122.849 218.095 122.865 218.011 122.897 217.933C122.929 217.854 122.978 217.784 123.039 217.725C123.1 217.666 123.172 217.621 123.252 217.592C123.332 217.563 123.416 217.55 123.501 217.556L169.183 218.492C169.355 218.492 169.521 218.56 169.643 218.682C169.765 218.804 169.833 218.97 169.833 219.142C169.833 219.314 169.765 219.48 169.643 219.602C169.521 219.723 169.355 219.792 169.183 219.792L169.157 219.753Z" fill="#845ADF"/>
<path d="M186.2 117.131H156.3C156.217 117.131 156.135 117.114 156.058 117.082C155.982 117.05 155.912 117.003 155.854 116.944C155.796 116.884 155.75 116.814 155.72 116.737C155.689 116.659 155.674 116.577 155.676 116.494C155.674 116.411 155.689 116.33 155.72 116.253C155.751 116.177 155.797 116.107 155.855 116.049C155.913 115.99 155.983 115.945 156.059 115.914C156.136 115.883 156.218 115.868 156.3 115.87H186.2C186.283 115.868 186.366 115.883 186.443 115.914C186.52 115.944 186.59 115.99 186.65 116.048C186.709 116.106 186.756 116.176 186.788 116.252C186.821 116.329 186.837 116.411 186.837 116.494C186.837 116.663 186.77 116.825 186.65 116.944C186.531 117.064 186.369 117.131 186.2 117.131Z" fill="#845ADF"/>
<path d="M208.3 117.222C202.45 117.222 198.108 117.222 197.9 117.092C197.821 117.07 197.746 117.032 197.682 116.981C197.617 116.93 197.562 116.867 197.522 116.795C197.44 116.65 197.42 116.479 197.464 116.318C197.509 116.158 197.616 116.022 197.761 115.94C197.906 115.859 198.078 115.838 198.238 115.883C199.382 116.026 219.116 115.948 232.168 115.883C232.251 115.881 232.334 115.896 232.411 115.927C232.488 115.957 232.558 116.003 232.618 116.061C232.677 116.119 232.724 116.188 232.756 116.265C232.788 116.342 232.805 116.424 232.805 116.507C232.805 116.676 232.738 116.838 232.618 116.957C232.499 117.077 232.337 117.144 232.168 117.144C225.2 117.17 215.58 117.222 208.3 117.222Z" fill="#845ADF"/>
<path d="M181.429 98.6449H138.009C137.837 98.6449 137.671 98.5764 137.549 98.4545C137.428 98.3326 137.359 98.1673 137.359 97.9949C137.359 97.8225 137.428 97.6572 137.549 97.5353C137.671 97.4134 137.837 97.3449 138.009 97.3449H181.429C181.601 97.3449 181.767 97.4134 181.889 97.5353C182.011 97.6572 182.079 97.8225 182.079 97.9949C182.079 98.1673 182.011 98.3326 181.889 98.4545C181.767 98.5764 181.601 98.6449 181.429 98.6449Z" fill="#845ADF"/>
<path d="M233.364 98.6449H190.1C189.928 98.6449 189.762 98.5764 189.64 98.4545C189.518 98.3326 189.45 98.1673 189.45 97.9949C189.45 97.8225 189.518 97.6572 189.64 97.5353C189.762 97.4134 189.928 97.3449 190.1 97.3449H233.312C233.484 97.3449 233.65 97.4134 233.772 97.5353C233.893 97.6572 233.962 97.8225 233.962 97.9949C233.962 98.1673 233.893 98.3326 233.772 98.4545C233.65 98.5764 233.484 98.6449 233.312 98.6449H233.364Z" fill="#845ADF"/>
<path d="M140.7 89.4409C132.679 89.4409 126.569 89.4409 126.322 89.4409C126.157 89.4123 126.01 89.3198 125.913 89.1836C125.815 89.0473 125.776 88.8783 125.802 88.7129C125.828 88.5516 125.916 88.4068 126.047 88.3096C126.178 88.2124 126.342 88.1705 126.504 88.1929C127.609 88.2709 159.667 88.1929 176.489 88.1929C176.658 88.1929 176.82 88.26 176.939 88.3795C177.059 88.499 177.126 88.661 177.126 88.8299C177.126 88.913 177.11 88.9952 177.077 89.0718C177.045 89.1483 176.998 89.2177 176.939 89.2758C176.879 89.3339 176.809 89.3796 176.732 89.4102C176.655 89.4408 176.572 89.4557 176.489 89.4539C169.43 89.4149 152.842 89.4409 140.7 89.4409Z" fill="#845ADF"/>
<path d="M188.202 89.4279C188.086 89.4255 187.973 89.3899 187.876 89.3254C187.779 89.261 187.703 89.1703 187.656 89.0639C187.593 88.9028 187.592 88.7238 187.655 88.5624C187.717 88.401 187.839 88.2691 187.994 88.1929C188.501 87.9459 198.602 87.9199 217.998 88.1929C218.164 88.1995 218.32 88.2691 218.436 88.3876C218.552 88.506 218.619 88.6642 218.622 88.8299C218.622 88.913 218.605 88.9952 218.573 89.0718C218.541 89.1483 218.494 89.2177 218.435 89.2758C218.375 89.3339 218.305 89.3796 218.228 89.4102C218.151 89.4408 218.068 89.4557 217.985 89.4539C206.688 89.3369 189.515 89.2329 188.449 89.4539C188.366 89.469 188.28 89.46 188.202 89.4279Z" fill="white"/>
<path d="M146.316 154.103H123.93C123.758 154.103 123.592 154.034 123.47 153.913C123.349 153.791 123.28 153.625 123.28 153.453C123.28 153.281 123.349 153.115 123.47 152.993C123.592 152.871 123.758 152.803 123.93 152.803H146.316C146.488 152.803 146.654 152.871 146.776 152.993C146.898 153.115 146.966 153.281 146.966 153.453C146.966 153.625 146.898 153.791 146.776 153.913C146.654 154.034 146.488 154.103 146.316 154.103Z" fill="#845ADF"/>
<path d="M94.953 163.359H78.482C78.3096 163.359 78.1443 163.29 78.0224 163.169C77.9005 163.047 77.832 162.881 77.832 162.709C77.832 162.537 77.9005 162.371 78.0224 162.249C78.1443 162.127 78.3096 162.059 78.482 162.059H94.953C95.1254 162.059 95.2907 162.127 95.4126 162.249C95.5345 162.371 95.603 162.537 95.603 162.709C95.603 162.881 95.5345 163.047 95.4126 163.169C95.2907 163.29 95.1254 163.359 94.953 163.359Z" fill="#845ADF"/>
<path d="M140.349 163.359H101.206C101.034 163.359 100.868 163.29 100.746 163.169C100.625 163.047 100.556 162.881 100.556 162.709C100.556 162.537 100.625 162.371 100.746 162.249C100.868 162.127 101.034 162.059 101.206 162.059H140.349C140.521 162.059 140.687 162.127 140.809 162.249C140.931 162.371 140.999 162.537 140.999 162.709C140.999 162.881 140.931 163.047 140.809 163.169C140.687 163.29 140.521 163.359 140.349 163.359Z" fill="white"/>
<path d="M224.017 163.359H148.188C148.016 163.359 147.85 163.29 147.728 163.169C147.606 163.047 147.538 162.881 147.538 162.709C147.538 162.537 147.606 162.371 147.728 162.249C147.85 162.127 148.016 162.059 148.188 162.059H224.017C224.189 162.059 224.355 162.127 224.477 162.249C224.598 162.371 224.667 162.537 224.667 162.709C224.667 162.881 224.598 163.047 224.477 163.169C224.355 163.29 224.189 163.359 224.017 163.359Z" fill="#845ADF"/>
<path d="M21.1 68.0169C22.3206 68.0169 23.31 67.0275 23.31 65.8069C23.31 64.5864 22.3206 63.5969 21.1 63.5969C19.8795 63.5969 18.89 64.5864 18.89 65.8069C18.89 67.0275 19.8795 68.0169 21.1 68.0169Z" fill="#231F20"/>
<path d="M28.8481 68.0169C30.0686 68.0169 31.0581 67.0275 31.0581 65.8069C31.0581 64.5864 30.0686 63.5969 28.8481 63.5969C27.6275 63.5969 26.6381 64.5864 26.6381 65.8069C26.6381 67.0275 27.6275 68.0169 28.8481 68.0169Z" fill="white"/>
<path d="M36.596 68.0169C37.8165 68.0169 38.806 67.0275 38.806 65.8069C38.806 64.5864 37.8165 63.5969 36.596 63.5969C35.3754 63.5969 34.386 64.5864 34.386 65.8069C34.386 67.0275 35.3754 68.0169 36.596 68.0169Z" fill="white"/>
<path d="M181.325 273.235H98.632L107.979 244.739H171.978L181.325 273.235Z" fill="white"/>
<path d="M181.325 273.885H98.6319C98.5286 273.888 98.4259 273.867 98.3328 273.822C98.2397 273.777 98.1589 273.71 98.0975 273.627C98.036 273.544 97.9958 273.447 97.9802 273.344C97.9646 273.242 97.9741 273.138 98.0079 273.04L107.355 244.544C107.397 244.411 107.48 244.296 107.592 244.214C107.704 244.132 107.84 244.088 107.979 244.089H171.978C172.117 244.088 172.253 244.132 172.365 244.214C172.477 244.296 172.56 244.411 172.602 244.544L181.949 273.04C181.983 273.138 181.992 273.242 181.977 273.344C181.961 273.447 181.921 273.544 181.859 273.627C181.798 273.71 181.717 273.777 181.624 273.822C181.531 273.867 181.428 273.888 181.325 273.885ZM99.5289 272.585H180.428L171.51 245.389H108.447L99.5289 272.585Z" fill="#231F20"/>
<path d="M188.15 273.235H91.807C89.5885 273.235 87.79 275.031 87.79 277.245C87.79 279.46 89.5885 281.256 91.807 281.256H188.15C190.369 281.256 192.167 279.46 192.167 277.245C192.167 275.031 190.369 273.235 188.15 273.235Z" fill="white"/>
<path d="M188.163 281.919H91.807C90.5692 281.919 89.3822 281.427 88.5069 280.552C87.6317 279.677 87.14 278.49 87.14 277.252C87.14 276.014 87.6317 274.827 88.5069 273.952C89.3822 273.077 90.5692 272.585 91.807 272.585H188.163C189.401 272.585 190.588 273.077 191.463 273.952C192.338 274.827 192.83 276.014 192.83 277.252C192.83 278.49 192.338 279.677 191.463 280.552C190.588 281.427 189.401 281.919 188.163 281.919ZM91.807 273.885C90.914 273.885 90.0576 274.24 89.4262 274.871C88.7947 275.503 88.44 276.359 88.44 277.252C88.44 278.145 88.7947 279.001 89.4262 279.633C90.0576 280.264 90.914 280.619 91.807 280.619H188.163C189.056 280.619 189.912 280.264 190.544 279.633C191.175 279.001 191.53 278.145 191.53 277.252C191.53 276.359 191.175 275.503 190.544 274.871C189.912 274.24 189.056 273.885 188.163 273.885H91.807Z" fill="#231F20"/>
<path d="M101.115 265.682C102.415 264.98 174.045 251.902 174.045 251.902L171.692 244.739H107.693L101.115 265.682Z" fill="#231F20"/>
<path d="M101.102 266.332C100.953 266.331 100.81 266.275 100.699 266.176C100.605 266.094 100.537 265.986 100.504 265.866C100.472 265.745 100.476 265.618 100.517 265.5L107.095 244.557C107.132 244.428 107.211 244.314 107.319 244.234C107.427 244.155 107.559 244.113 107.693 244.115H171.692C171.825 244.112 171.955 244.152 172.063 244.229C172.171 244.307 172.25 244.417 172.29 244.544L174.643 251.694C174.668 251.78 174.675 251.871 174.664 251.96C174.652 252.049 174.622 252.135 174.576 252.212C174.529 252.289 174.467 252.355 174.394 252.407C174.32 252.459 174.237 252.495 174.149 252.513C154.519 256.101 103.156 265.578 101.349 266.267C101.271 266.303 101.188 266.326 101.102 266.332ZM108.2 245.376L102.09 264.811C110.696 262.861 160.824 253.683 173.252 251.408L171.276 245.376H108.2Z" fill="#231F20"/>
</svg>
